<svg xmlns="http://www.w3.org/2000/svg" xmlns:xlink="http://www.w3.org/1999/xlink" width="2560" height="1600" viewBox="0 0 2560 1600">
  <defs>
    <radialGradient id="radial-gradient" cx="0.398" cy="0.462" r="0.795" gradientTransform="matrix(0.667, 0, 0, -1, 0.133, 1.077)" gradientUnits="objectBoundingBox">
      <stop offset="0" stop-color="#5761d7"/>
      <stop offset="0.03" stop-color="#525bce"/>
      <stop offset="0.18" stop-color="#3e41a6"/>
      <stop offset="0.33" stop-color="#2d2b85"/>
      <stop offset="0.48" stop-color="#201a6c"/>
      <stop offset="0.64" stop-color="#160e5a"/>
      <stop offset="0.81" stop-color="#11074f"/>
      <stop offset="1" stop-color="#0f054c"/>
    </radialGradient>
    <radialGradient id="radial-gradient-2" cx="1.022" cy="0.151" r="1.218" gradientTransform="matrix(-0.601, 0, 0, 1, -0.035, 0)" gradientUnits="objectBoundingBox">
      <stop offset="0" stop-color="#ff2c9c"/>
      <stop offset="0.03" stop-color="#f62f9f"/>
      <stop offset="0.2" stop-color="#c63eb0"/>
      <stop offset="0.37" stop-color="#9e4bbe"/>
      <stop offset="0.54" stop-color="#7f54c9"/>
      <stop offset="0.7" stop-color="#695bd1"/>
      <stop offset="0.86" stop-color="#5c60d5"/>
      <stop offset="1" stop-color="#5761d7"/>
    </radialGradient>
    <linearGradient id="linear-gradient" x1="-2.208" y1="0.5" x2="-1.207" y2="0.5" gradientUnits="objectBoundingBox">
      <stop offset="0" stop-color="#c0bff6"/>
      <stop offset="0.29" stop-color="#c5c4f7"/>
      <stop offset="0.64" stop-color="#d3d2f9"/>
      <stop offset="1" stop-color="#e9e9fd"/>
    </linearGradient>
    <linearGradient id="linear-gradient-2" x1="-17.683" y1="0.5" x2="-16.682" y2="0.5" gradientUnits="objectBoundingBox">
      <stop offset="0" stop-color="#5761d7"/>
      <stop offset="0.18" stop-color="#5c66d9"/>
      <stop offset="0.39" stop-color="#6a73df"/>
      <stop offset="0.61" stop-color="#8289e8"/>
      <stop offset="0.85" stop-color="#a3a7f5"/>
      <stop offset="1" stop-color="#bcbeff"/>
    </linearGradient>
    <linearGradient id="linear-gradient-3" x1="-1.081" y1="0.5" x2="-0.081" y2="0.5" xlink:href="#linear-gradient-2"/>
    <linearGradient id="linear-gradient-4" x1="-1.524" y1="0.5" x2="-0.051" y2="0.5" xlink:href="#linear-gradient"/>
    <clipPath id="clip-path">
      <path id="Path_374" data-name="Path 374" d="M1027.133,420.648,447.115,85.93,374.25,519.237,953.884,853.7Z" transform="translate(-374.25 -85.93)" fill="none"/>
    </clipPath>
    <linearGradient id="linear-gradient-5" x1="-1.85" y1="0.5" x2="-0.85" y2="0.5" xlink:href="#linear-gradient-2"/>
    <linearGradient id="linear-gradient-6" x1="-1.513" y1="0.5" x2="-0.513" y2="0.5" xlink:href="#linear-gradient"/>
    <linearGradient id="linear-gradient-7" x1="5.742" y1="0.282" x2="7.517" y2="1.028" gradientUnits="objectBoundingBox">
      <stop offset="0" stop-color="#42e8e0"/>
      <stop offset="0.11" stop-color="#37b6bf"/>
      <stop offset="0.22" stop-color="#2c87a1"/>
      <stop offset="0.34" stop-color="#235f87"/>
      <stop offset="0.46" stop-color="#1c3f72"/>
      <stop offset="0.58" stop-color="#162561"/>
      <stop offset="0.71" stop-color="#121355"/>
      <stop offset="0.85" stop-color="#10084e"/>
      <stop offset="1" stop-color="#0f054c"/>
    </linearGradient>
    <clipPath id="clip-Custom_Size_1">
      <rect width="2560" height="1600"/>
    </clipPath>
  </defs>
  <g id="Custom_Size_1" data-name="Custom Size – 1" clip-path="url(#clip-Custom_Size_1)">
    <rect width="2560" height="1600" fill="#fff"/>
    <g id="_1055_Converted_" data-name="1055 [Converted]" transform="translate(0 -24)" style="isolation: isolate">
      <g id="_ÎÓÈ_1" data-name="—ÎÓÈ_1">
        <rect id="Rectangle_1" data-name="Rectangle 1" width="2560" height="1707" transform="translate(2560 1707) rotate(180)" fill="#0f054c"/>
        <rect id="Rectangle_2" data-name="Rectangle 2" width="2560" height="1707" transform="translate(2560 1707) rotate(180)" opacity="0.9" fill="url(#radial-gradient)" style="mix-blend-mode: lighten;isolation: isolate"/>
        <path id="Path_44" data-name="Path 44" d="M2488.712,41.492a21.075,21.075,0,0,0-19.155,0c-4.01,2.261-4.991,5.631-2.986,8.532l-296.579,171.2V437.386l-72.268,41.68V714.213L1850.291,857.127,1811.9,834.858l190.865-110.193V595.744l-.768-.427-217.016-125.3V426.337l122.736-70.86a21.33,21.33,0,0,0,17.491-.811c5.29-3.029,5.29-7.978,0-11.049a21.075,21.075,0,0,0-19.155,0c-4.778,2.773-5.2,7.039-1.365,10.111l-122.736,70.86v47.183l.768.469,217.016,125.253V722.873l-144.493,83.4V752.437l66.125-38.139a21.33,21.33,0,0,0,17.491-.81c5.29-3.029,5.29-7.978,0-11.049a21.074,21.074,0,0,0-19.155,0c-4.778,2.773-5.2,7.039-1.365,10.111l-66.125,38.267v57.208l-43.386,25.085-51.577-29.863v-93.47l97.267-56.142V588.961l-.768-.427L1648.974,470.32c3.839-3.072,3.413-7.38-1.365-10.111a21.074,21.074,0,0,0-19.155,0c-5.29,3.072-5.29,8.02,0,11.049a21.33,21.33,0,0,0,17.491.811l205.541,118.683v61.133l-94.238,54.393V641.817l-.768-.427-125.3-72.524c3.839-3.029,3.413-7.338-1.365-10.068a21.075,21.075,0,0,0-19.155,0c-5.29,3.029-5.29,7.978,0,11.049a21.33,21.33,0,0,0,17.491.811L1754.219,643.4V801.241l-36.262-20.9-59.725,34.47-54.18-30.929V708.155l-.768-.427L1460.37,625.222V553.595a18.855,18.855,0,0,0,8.063-2.218c5.29-3.029,5.29-7.978,0-11.049a21.075,21.075,0,0,0-19.155,0c-5.29,3.072-5.29,8.02,0,11.049a18.854,18.854,0,0,0,8.063,2.218v73.249l.768.427,142.914,82.506V782.3L1368.393,648V505.473l126.149-72.822h116.123l198.629-114.673a21.33,21.33,0,0,0,17.491-.811c5.29-3.029,5.29-7.978,0-11.049a21.331,21.331,0,0,0-19.155,0c-4.778,2.773-5.2,7.039-1.365,10.111l-196.8,113.606H1499.789l364.922-210.916a21.33,21.33,0,0,0,17.491-.768,5.845,5.845,0,0,0,0-11.092,21.331,21.331,0,0,0-19.155,0c-4.778,2.773-5.2,7.039-1.365,10.111L1365.151,503.724V649.582l.768.469,289.327,166.8L1597.1,850.43l-493.545-284.8V395.664l-.768-.427L935.043,298.354c3.839-3.029,3.413-7.338-1.365-10.068a21.075,21.075,0,0,0-19.155,0c-5.29,3.029-5.29,7.978,0,11.049a21.33,21.33,0,0,0,17.491.768l168.639,97.31V567.374l.768.427,492.563,284.378-55.459,31.953L1050.654,602.569H759.706L577.885,497.581V336.152a15.614,15.614,0,0,0,5.247-1.834c5.29-3.072,5.29-8.02,0-11.049a21.074,21.074,0,0,0-19.155,0c-5.29,3.029-5.29,7.978,0,11.049a20.307,20.307,0,0,0,10.879,2.218V499.116l.768.427L759.066,605.385h290.948l411.849,237.792H1378.8l-140.568-81.056H1129.62L979.453,848.936a21.331,21.331,0,0,0-17.491.811c-5.29,3.029-5.29,7.978,0,11.049a21.331,21.331,0,0,0,19.2,0c4.735-2.773,5.162-7.039,1.323-10.111l148.332-85.578h106.652l140.568,81.056h88.906L1535.5,885.71l-147.778,85.322-42.064-23.975V883.278L1239,821.633c3.8-3.029,3.37-7.338-1.365-10.068a21.331,21.331,0,0,0-19.2,0c-5.29,3.029-5.29,7.978,0,11.049a21.331,21.331,0,0,0,17.491.768l106.652,61.645v60.195l-113.947-65.74h-53.8l-.341.213-64.247,37.115a21.33,21.33,0,0,0-17.491.768c-5.29,3.072-5.29,8.02,0,11.049a21.074,21.074,0,0,0,19.155,0c4.778-2.73,5.2-7.039,1.365-10.068l62.413-36.048h52.26l156.694,90.484-28.455,16.424,90.825,52.43-42.661,24.573h-64.2l-46.031-26.578c3.669-3.072,3.2-7.252-1.536-9.983a21.075,21.075,0,0,0-19.155,0c-5.29,3.072-5.29,8.02,0,11.049a21.331,21.331,0,0,0,17.7.682l48.207,27.858h59.725l-108.487,62.626-255.2-147.351H851.9l-.341.213-103.368,59.725a21.331,21.331,0,0,0-17.491.768,5.845,5.845,0,0,0,0,11.092,21.331,21.331,0,0,0,19.155,0c4.735-2.773,5.162-7.039,1.365-10.111L852.707,987.8h182.034l196.838,113.649h-84.255l-82.378-47.738c3.839-3.029,3.413-7.338-1.365-10.068a21.074,21.074,0,0,0-19.155,0c-5.29,3.029-5.29,7.978,0,11.049a21.33,21.33,0,0,0,17.491.768l84.6,48.847h90.313l50.894,29.394-129.561,74.785H744.05L422.344,1022.908c3.8-3.072,3.37-7.338-1.365-10.111a21.331,21.331,0,0,0-19.2,0c-5.29,3.072-5.29,8.02,0,11.049a21.331,21.331,0,0,0,17.491.811l323.967,186.9h409.545l-51.406,29.863H794.646L643.455,1328.7a21.331,21.331,0,0,0-17.491.768c-5.29,3.071-5.29,8.02,0,11.049a21.073,21.073,0,0,0,19.155,0c4.778-2.73,5.2-7.039,1.365-10.068L795.8,1244.233h306.519l.341-.213,347.388-200.507,38.395,22.269-365.22,210.873H855.95l-322.687,186.6H86.388L0,1413.3v3.5l85.578,49.444h448.58l.341-.213,202.469-116.891v69.2l-133.443,77.046a21.331,21.331,0,0,0-17.491.768c-5.29,3.072-5.29,8.02,0,11.049a21.076,21.076,0,0,0,19.155,0c4.778-2.73,5.2-7.039,1.365-10.068L740,1420.081v-72.31h-.683l117.83-67.959H1124.2l.341-.213,366.884-211.94,43.813,25.3L823.357,1504.123v74.315h3.029v-72.524l712.438-411.209,54.137,31.27-367.439,212.11v37.926l-65.143,37.584v87.2l-126.319,72.95a21.33,21.33,0,0,0-17.491.768,7.977,7.977,0,0,0-3.669,3.924h26.45a6.527,6.527,0,0,0-2.261-2.944l126.319-72.95V1415.3l62.114-35.835V1519.14l36.688,21.33-66.423,37.968h6.058l63.053-36.39,63.01,36.39h6.058l-105.757-61.048v-177.6l367.311-212.11,49.4,28.412L1384.9,1306.219a21.33,21.33,0,0,0-17.491.811c-5.29,3.029-5.29,7.977,0,11.049a21.331,21.331,0,0,0,19.155,0c4.778-2.773,5.2-7.039,1.365-10.11l260.232-150.124,47.567,27.474-311.041,179.56h-84.725a8.02,8.02,0,0,0-3.711-4.01,21.331,21.331,0,0,0-19.155,0,5.845,5.845,0,0,0,0,11.092,21.33,21.33,0,0,0,19.155,0,7.933,7.933,0,0,0,3.712-4.266h85.706l312.875-180.669,19.2,11.092,14.8-8.532,74.486,43.3v59.725l-61.56,35.536H1648.5l-106.012,61.219a21.332,21.332,0,0,0-17.448.768,5.845,5.845,0,0,0,0,11.092,21.33,21.33,0,0,0,19.155,0c4.735-2.773,5.162-7.039,1.365-10.111l104.135-60.109h90.868l-181.01,104.477a21.329,21.329,0,0,0-17.875.6,5.844,5.844,0,0,0,0,11.092,21.331,21.331,0,0,0,19.155,0c4.65-2.687,5.2-6.868,1.664-9.9l225.762-130.329v28.8l-134.3,77.558v54.734l-109.34,63.138a21.33,21.33,0,0,0-17.491.811c-5.29,3.029-5.29,7.978,0,11.049a21.074,21.074,0,0,0,19.155,0c4.735-2.773,5.162-7.039,1.365-10.111l109.34-63.138V1415l134.3-77.557v-32.294l18.813-10.879v-63.352l-74.486-43.045,48.975-28.284,153.324,88.564V1348.8L1833.781,1408.9a21.331,21.331,0,0,0-17.875.6c-5.29,3.071-5.29,8.02,0,11.049a21.074,21.074,0,0,0,19.155,0c4.693-2.688,5.2-6.826,1.706-9.855l101.106-58.36v81.056l-79.947,46.159v98.888H1861V1481.47l76.79-44.367v141.336h3.285V1246.366l-153.58-88.521,55.075-31.612,200.506,115.7v275.59l96.328,55.459v5.461h3.029v-7.167l-96.328-55.459v-275.59l-200.506-115.7,40.741-23.506,270.47,156.139v235.1l149.527,86.175h5.887l-152.556-88.095v-235.1L1889.2,1099.058l66.039-38.1,450.03,259.805v116.891l154.39,89.119v-3.5l-151.19-87.284V1319.018L2155.36,1172.861h200.165l204.133,117.872v-3.5l-203.322-117.4H2150.112l-191.633-110.62,76.79-44.325,164.714,95.091h264.5l95.177,54.947v-3.5L2538.8,1149.4h20.861v-3.029h-26.108l-68.258-39.419h-264.5l-46.074-26.62h112.454l.341-.213,56.4-32.55h235.02l.768.427v-3.455H2329.288l63.522-36.689a21.331,21.331,0,0,0,17.491-.768c5.29-3.072,5.29-8.02,0-11.049a21.075,21.075,0,0,0-19.155,0c-4.778,2.731-5.2,7.039-1.365,10.068l-123.29,71.2H2149.6l-111.175-63.992,41.083-23.719-26.45-15.273h76.79l100.424,57.976c-3.84,3.072-3.413,7.338,1.365,10.111a21.33,21.33,0,0,0,19.155,0c5.29-3.072,5.29-8.02,0-11.049a21.33,21.33,0,0,0-17.491-.811l-102.642-59.256h-82.933l-56.27-32.764,34.555-19.965h61.3l53.924-31.1h40.229l90.868,52.43c-4.266,3.072-3.754,7.466,1.109,10.281a21.331,21.331,0,0,0,19.155,0c5.29-3.072,5.29-8.02,0-11.049a21.331,21.331,0,0,0-17.064-.939l-93.129-53.8h-41.85l-53.924,31.143h-55.374l110.534-63.991h59.726l124.4,71.841h233.739v-3.029H2326.644l-124.357-71.414h-61.3l-.384.213-152.172,87.882-39.973-23.037,172.009-99.315h121.328l100.04,57.763h217.827v-3.029H2342.684l-94.835-54.734h311.809v-3.029H2119.652l-.341.213L1945.34,912.075l-45.349-26.194,239.84-138.435h419.826v-3.029H2253.778L2559.657,567.8v-3.5L2247.721,744.374H2142.092l227.426-131.31V584.14L2478.3,521.3a21.331,21.331,0,0,0,17.363-.853,5.845,5.845,0,0,0,0-11.092,21.331,21.331,0,0,0-19.155,0c-4.778,2.773-5.2,7.039-1.365,10.111l-59.256,34.129V474.5l143.767-82.89V388.2L2412.989,472.88v82.8l-46.5,26.876v28.924l-229.26,132.249.768,1.323L1897.047,884.132l-43.813-25.255,247.434-142.914V480.815L2559.657,215.89v-3.5L2173.021,435.637V222.972l295.9-170.644.64.427a21.33,21.33,0,0,0,19.155,0C2494,49.47,2494,44.521,2488.712,41.492Zm-415.39,947.927L1717.744,1194.49,1362.25,989.248l355.494-205.284Z" transform="translate(0 128)" opacity="0.8" fill="url(#radial-gradient-2)"/>
        <path id="Path_45" data-name="Path 45" d="M2345.6,255.464l-63.181,36.518V409.513l-561.418,324.01-42.661-24.615,289.583-167.188V511.857l51.193-29.649V413.566l99.571-57.507a17.065,17.065,0,0,0,13.78-.6,4.65,4.65,0,0,0,0-8.532,16.808,16.808,0,0,0-15.1,0c-3.754,2.176-4.266,5.546-1.109,7.978l-99.144,57.251v68.769l-48.975,28.242V399.1l-.6-.341-28.284-16.339,169.748-98.12V174.153l120.6-69.623a17.065,17.065,0,0,0,13.78-.6,4.607,4.607,0,0,0,0-8.532,16.809,16.809,0,0,0-15.1,0c-3.754,2.176-4.266,5.589-1.066,7.978L2106.618,173V283.023l-169.748,98.12L1660.64,221.592V98.387A14.932,14.932,0,0,0,1667,96.638a4.607,4.607,0,0,0,0-8.532,16.552,16.552,0,0,0-15.1,0,4.607,4.607,0,0,0,0,8.532,15.273,15.273,0,0,0,6.356,1.749V223.042l.6.384,166.037,95.817H1703.9l-97.821-56.483c3.029-2.389,2.688-5.759-1.109-7.935a16.467,16.467,0,0,0-15.059,0,4.607,4.607,0,0,0,0,8.532,17.064,17.064,0,0,0,13.779.64l99.571,57.464h125.679l136.515,78.88V540.312L1675.828,707.628l-38.822-22.4,204.773-118.341a17.064,17.064,0,0,0,13.78-.6,4.607,4.607,0,0,0,0-8.745,16.723,16.723,0,0,0-15.059,0c-3.8,2.176-4.266,5.546-1.109,7.978l-204.773,118.3-37.456-21.629,245.045-141.549h66.636a6.058,6.058,0,0,0,2.9,3.2,16.808,16.808,0,0,0,15.1,0,4.607,4.607,0,0,0,0-8.532,16.809,16.809,0,0,0-15.1,0,6.144,6.144,0,0,0-2.9,3.157h-67.4L1594.772,661l-15.1-8.746-.6.341-11.049,6.356-58.573-34.043V577.683l48.505-27.986h76.15l83.829-48.42a17.065,17.065,0,0,0,13.822-.6,4.65,4.65,0,0,0,0-8.532,16.809,16.809,0,0,0-15.1,0c-3.8,2.176-4.266,5.546-1.109,7.978l-82.378,47.311h-71.414l142.658-82.378a17.065,17.065,0,0,0,14.078-.3,4.607,4.607,0,0,0,0-8.746,16.808,16.808,0,0,0-15.1,0c-3.669,2.133-4.266,5.418-1.28,7.807L1524.168,566.548V543.682l105.842-61.133V439.376l86.218-49.743a17.065,17.065,0,0,0,13.78-.64,4.607,4.607,0,0,0,0-8.532,16.809,16.809,0,0,0-15.1,0c-3.754,2.176-4.266,5.546-1.066,7.978l-86.218,49.572v43.173l-105.842,61.091v25.6l-14.846,8.532v49.956l58.744,33.916-38.608,22.056L1406.21,612.665V533.358l81.909-47.268a16.723,16.723,0,0,0,14.078-.469,4.607,4.607,0,0,0,0-8.532,16.553,16.553,0,0,0-15.1,0c-3.669,2.133-4.266,5.375-1.323,7.764l-79.563,45.732V466.593l63.01-36.347V309.6a14.121,14.121,0,0,0,6.357-1.749,4.607,4.607,0,0,0,0-8.532,16.808,16.808,0,0,0-15.1,0,4.607,4.607,0,0,0,0,8.532,13.822,13.822,0,0,0,6.357,1.749V428.8l-60.579,34.982V251.2h-2.389V614.072l120.858,69.793-43.344,25-157.845-91.209V400.469l-75.894-43.855v-81.7l-67.063-38.693c3.029-2.432,2.688-5.8-1.067-7.978a16.809,16.809,0,0,0-15.1,0,4.608,4.608,0,0,0,0,8.532,17.065,17.065,0,0,0,13.78.6l66.765,38.949v81.781l75.936,43.813v217.23l157.846,91.166-32.124,18.558L1233.305,605.8v-185.4l-.6-.341L1044.445,311.18c3.029-2.389,2.688-5.759-1.066-7.935a16.553,16.553,0,0,0-15.1,0,4.607,4.607,0,0,0,0,8.532,17.064,17.064,0,0,0,13.779.64l189.329,109.255V606.991l.6.384,212.58,122.736-52.047,29.863L1037.79,555.2V463.223l-.6-.341L740.273,291.47c3.029-2.432,2.688-5.8-1.067-7.978a16.808,16.808,0,0,0-15.1,0,4.607,4.607,0,0,0,0,8.532,17.064,17.064,0,0,0,13.779.64l297.39,172.094v92.19l.6.341L1234.8,672.134H1076.953L894.321,566.676c3.029-2.389,2.688-5.759-1.067-7.935a16.552,16.552,0,0,0-15.1,0,4.607,4.607,0,0,0,0,8.532,17.064,17.064,0,0,0,13.78.64l184.381,106.439h162.581L1390,761.594l-60.493,34.939-129.86-74.955H991.162l-237.11-136.9H622.486L568.861,553.75c3.029-2.432,2.688-5.8-1.067-7.978a16.808,16.808,0,0,0-15.1,0,4.607,4.607,0,0,0,0,8.532,17.064,17.064,0,0,0,13.779.64L621.931,586.9H753.5L932.674,690.35H777.814l-74.657-42.874c3.029-2.389,2.688-5.759-1.066-7.935a16.552,16.552,0,0,0-15.1,0,4.607,4.607,0,0,0,0,8.532,17.064,17.064,0,0,0,13.779.64l76.278,44.026H936.6l53.8,31.057h208.484l36.3,20.989h-88.649l-44.453,25.6H916.718L864.5,740.221H759.726a6.442,6.442,0,0,0-2.944-3.157,16.808,16.808,0,0,0-15.1,0,4.607,4.607,0,0,0,0,8.746,16.809,16.809,0,0,0,15.1,0,6.486,6.486,0,0,0,2.944-3.2H863.861l52.217,30.161h181.736L1047.773,801.7a17.065,17.065,0,0,0-13.78.6,4.608,4.608,0,0,0,0,8.532,16.808,16.808,0,0,0,15.1,0c3.754-2.176,4.266-5.546,1.067-7.978l97.182-56.1h92.1l87.626,50.6-32.38,18.685,1.792,1.024,19.027,11.007h-60.536L1175.8,782.327c3.029-2.389,2.688-5.759-1.066-7.935a16.552,16.552,0,0,0-15.1,0,4.607,4.607,0,0,0,0,8.532,17.064,17.064,0,0,0,13.78.64l81.056,46.927h65.314l44.325,25.6-27.26,15.7h-48.719l-42.234,24.359h-31.7l-71.628-40.613c3.2-2.432,2.944-5.887-.9-8.105a16.808,16.808,0,0,0-15.1,0,4.607,4.607,0,0,0,0,8.745,17.063,17.063,0,0,0,13.523.725l73.42,42.362h33.276l42.234-24.4h43.514l-87.071,50.3h-46.927l-98.12-56.611H804.776L621.334,762.7c3.157-2.432,2.9-5.887-.939-8.063a16.552,16.552,0,0,0-15.1,0,4.607,4.607,0,0,0,0,8.532,17.064,17.064,0,0,0,13.609.725L804.093,870.764H1099.9l98.12,56.611h48.591l119.963-69.239,31.484,18.174-135.577,78.283h-95.816l-78.88-45.562H885.362a6.441,6.441,0,0,0-2.944-3.157,16.551,16.551,0,0,0-15.1,0,4.607,4.607,0,0,0,0,8.532,16.553,16.553,0,0,0,15.1,0,6.144,6.144,0,0,0,2.9-3.157h201.786l74.742,43.173H876.318L604.483,1111.414a17.064,17.064,0,0,0-13.779.6,4.607,4.607,0,0,0,0,8.532,16.553,16.553,0,0,0,15.1,0c3.754-2.133,4.266-5.546,1.067-7.935l270.385-156.1h385.954l137.027-79.136,35.75,20.648-189.031,109.169H913.9l-291.46,168.3H282.734L84.574,1061.458c3.029-2.432,2.688-5.8-1.067-7.978a16.808,16.808,0,0,0-15.1,0,4.607,4.607,0,0,0,0,8.532,17.064,17.064,0,0,0,13.78.64l199.824,115.184h341.16l291.5-168.255h242.442L801.278,1215.293v54.094l-142.018,81.994a17.064,17.064,0,0,0-13.779.64,4.607,4.607,0,0,0,0,8.532,16.808,16.808,0,0,0,15.1,0c3.754-2.176,4.266-5.546,1.066-7.978l142.018-81.952v-53.966l358.352-206.906h83.232l-179.176,103.453v22.824l-85.621,49.7a17.064,17.064,0,0,0-13.78.64,4.607,4.607,0,0,0,0,8.532,16.553,16.553,0,0,0,15.1,0c3.754-2.176,4.266-5.546,1.067-7.935l46.458-26.834v62.5L759.555,1378.386a17.063,17.063,0,0,0-13.779.6,4.608,4.608,0,0,0,0,8.746,16.809,16.809,0,0,0,15.1,0c3.754-2.176,4.266-5.546,1.066-7.978l269.7-155.926V1158.6l36.688-21.33v-22.781l180.882-104.221-.6-1.024L1438.5,899.6l34.555,19.923L1277.843,1032.15v185.319L919.022,1424.631H923.8l297.091-171.5v167.572l-6.74,3.925h4.778l4.266-2.517V1251.726l56.953-32.892V1033.515L1475.321,920.89l30.375,17.534-150.423,86.858V1126.9l.6.341L1526.9,1226v34.427l-96.712,55.843a17.064,17.064,0,0,0-13.78.64,4.607,4.607,0,0,0,0,8.532,16.553,16.553,0,0,0,15.1,0c3.754-2.176,4.266-5.546,1.067-7.935l96.712-55.843v-37.243l-.6-.341-171.028-98.76v-98.632l113.649-65.613v42.32l-52.089,30.076a17.063,17.063,0,0,0-13.779.6,4.607,4.607,0,0,0,0,8.745,16.808,16.808,0,0,0,15.1,0c3.754-2.176,4.266-5.546,1.067-7.978l52.089-30.076V959.626l34.385-19.837,40.656,23.464v73.718l-76.79,44.239v50.98l.6.341,161.386,93.214c-2.986,2.389-2.645,5.759,1.109,7.935a16.553,16.553,0,0,0,15.1,0,4.607,4.607,0,0,0,0-8.532,17.065,17.065,0,0,0-13.78-.64L1474.255,1131v-48.207l74.273-42.661v50.766l99.357,57.379c-3.029,2.432-2.688,5.8,1.067,7.977a16.808,16.808,0,0,0,15.1,0,4.607,4.607,0,0,0,0-8.745,17.064,17.064,0,0,0-13.779-.6l-99.357-57.379V964.66l28.583,16.51.6-.341,46.415-26.834,42.661,24.615v59.725l113.307,65.442v56.355a13.949,13.949,0,0,0-6.356,1.749,4.607,4.607,0,0,0,0,8.532,16.809,16.809,0,0,0,15.1,0,4.607,4.607,0,0,0,0-8.532,14.121,14.121,0,0,0-6.356-1.749V1102.37l-113.308-65.356V979.975L1855,1085.817v112.2l-99.443,57.422h-91.422l-156.608,90.4a17.064,17.064,0,0,0-13.78.64,4.608,4.608,0,0,0,0,8.532,16.81,16.81,0,0,0,15.1,0c3.754-2.176,4.266-5.546,1.067-7.978l155.115-89.588h86.474l-287.663,166.079a17.064,17.064,0,0,0-13.78.64h17.448l390.092-225.207v-114.5l-.6-.341L1629.242,952.63l45.86-26.492,388.812,224.525v133.955l132.846,76.79c-3.029,2.432-2.688,5.8,1.067,7.978a16.807,16.807,0,0,0,15.1,0,4.607,4.607,0,0,0,0-8.532,17.064,17.064,0,0,0-13.779-.6l-132.846-76.79V1149.51l-.6-.341L1677.491,925.028l43.642-25.17,384.5,221.837h229.345l10.751,6.229v-2.773l-10.111-5.844H2106.149L1781.584,931.9h65.271l110.919,63.991h85.621l118.341-68.258a17.065,17.065,0,0,0,13.78-.6,4.607,4.607,0,0,0,0-8.532,16.808,16.808,0,0,0-15.1,0c-3.754,2.176-4.266,5.546-1.067,7.977l-116.891,67.49h-84.042l-110.918-63.991h-70.049l-54.051-31.185,116.464-67.234,33.147,19.112v50.212l84.128,48.548c-3.029,2.432-2.688,5.8,1.066,7.978a16.808,16.808,0,0,0,15.1,0,4.607,4.607,0,0,0,0-8.532,17.064,17.064,0,0,0-13.78-.6L1875.4,899.688V851.438l89.588,51.833h42.96l50.639-29.265a17.063,17.063,0,0,0,13.779-.6,4.607,4.607,0,0,0,0-8.745,16.807,16.807,0,0,0-15.1,0c-3.754,2.176-4.266,5.589-1.066,7.978L2007,901.053h-41.082l-123.717-71.5,22.44-12.8-1.792-1.066-69.793-40.272,33.531-19.368h50.681l36.262,20.947c-2.858,2.389-2.474,5.716,1.237,7.85a16.553,16.553,0,0,0,15.1,0,4.607,4.607,0,0,0,0-8.532,17.064,17.064,0,0,0-13.95-.554l-38.011-21.928h-47.14l85.322-49.359L2117.24,820.594h145l81.482-46.927c.555.213,1.152.3,1.707.469V763.13a13.225,13.225,0,0,0-2.986,1.195c-3.8,2.176-4.266,5.546-1.11,7.935l-79.989,46.2h-143.3l-155.115-89.588h66.38l64.887,37.456c-2.986,2.432-2.688,5.8,1.109,7.978a16.807,16.807,0,0,0,15.1,0,4.65,4.65,0,0,0,0-8.745,17.064,17.064,0,0,0-13.779-.6l-66.679-38.395h-71.2l-40.1-23.165,102.13-59.469H2345.6V641.5H2024.922l40.485-23.421h242.058l38.395-22.141v-2.773l-39.205,22.653H2064.511l-273.8,158.059L1760.3,756.347l287.876-166.378H2258.96l86.645-50v-2.688l-87.583,50.553H2047.234L1757.907,754.854l-34.513-19.965,561.418-324.223V293.347l60.792-35.11ZM1859.91,816.627l-280.2,161.77-280.24-161.77,280.24-161.77Z" transform="translate(214.053 281.808)" fill="#42e8e0" opacity="0.1"/>
        <g id="Group_8" data-name="Group 8" transform="translate(1001.935 733.811)" opacity="0.67">
          <path id="Path_286" data-name="Path 286" d="M954.934,1003.515,234.86,587.741,954.934,172.01l720.074,415.774Z" transform="translate(-234.86 -172.01)" fill="#0f054c"/>
        </g>
        <g id="Group_9" data-name="Group 9" transform="translate(1113.622 798.315)" opacity="0.67">
          <path id="Path_287" data-name="Path 287" d="M869.428,889.628,261.04,538.358,869.428,187.13,1477.816,538.4Z" transform="translate(-261.04 -187.13)" fill="#0f054c"/>
        </g>
        <g id="Group_10" data-name="Group 10" transform="translate(1243.354 873.227)" opacity="0.9">
          <path id="Path_288" data-name="Path 288" d="M770.106,757.363,291.45,481.005,770.106,204.69l478.656,276.358Z" transform="translate(-291.45 -204.69)" fill="#080344"/>
        </g>
        <path id="Path_289" data-name="Path 289" d="M878.866,755.925a26.364,26.364,0,0,1-12.8-3.285L294.5,422.743a10.708,10.708,0,0,1-6.186-8.532A8.276,8.276,0,0,1,293,407.129l340.989-196.88a25.34,25.34,0,0,1,23.165.9l571.4,329.9a10.623,10.623,0,0,1,6.186,8.532,8.533,8.533,0,0,1-4.65,7.082L889.1,753.536a21.331,21.331,0,0,1-10.238,2.389ZM296.543,419.2l571.4,329.9a21.672,21.672,0,0,0,19.112.9l340.989-196.88a4.522,4.522,0,0,0,2.645-3.541c0-1.706-1.578-3.626-4.266-5.119l-571.316-329.9a21.672,21.672,0,0,0-19.112-.9L295.008,410.542a4.522,4.522,0,0,0-2.645,3.541c0,1.706,1.578,3.626,4.266,5.119Z" transform="translate(941.648 678.934)" fill="#42e8e0"/>
        <path id="Path_290" data-name="Path 290" d="M374.743,519.285,446.968,90.756l-5.8-2.474L449.7,83.29h0a6.314,6.314,0,0,1,6.74.469L1033.9,417.283a16.254,16.254,0,0,1,7.551,14.5L968.583,863.73A5.376,5.376,0,0,1,965.555,868h0l-8.532,4.949-1.493-7.978h.512L382.208,533.961a16.253,16.253,0,0,1-7.465-14.675Z" transform="translate(1223.849 269.558)" fill="url(#linear-gradient)"/>
        <path id="Path_291" data-name="Path 291" d="M607.836,166.976l9.513-4.266a12.8,12.8,0,0,1,1.195,7.167l-72.78,431.985a5.376,5.376,0,0,1-3.029,4.266h0l-8.532,4.949L532.71,603.1h.512L504.17,586.333Z" transform="translate(1646.667 531.427)" fill="url(#linear-gradient-2)"/>
        <path id="Path_292" data-name="Path 292" d="M380.117,535.168,957.405,868.435c4.479,2.6,8.276,1.109,9.087-3.5l72.78-431.985a16.126,16.126,0,0,0-7.508-14.633L454.475,85.009c-4.266-2.56-8.276-1.109-9.044,3.541L372.609,520.492a16.382,16.382,0,0,0,7.509,14.675Z" transform="translate(1216.896 273.556)" fill="#24126a"/>
        <g id="Group_11" data-name="Group 11" transform="translate(1596.586 366.586)" opacity="0.51">
          <path id="Path_293" data-name="Path 293" d="M447.115,85.93l580.018,334.718L953.884,853.7,374.25,519.237Z" transform="translate(-374.25 -85.93)" fill="#453c9e"/>
        </g>
        <path id="Path_294" data-name="Path 294" d="M289.29,366.094l31.484,16.467,315.9-182.376a22.866,22.866,0,0,1,20.648.853l544.823,314.582c5.247-2.944,29.009-14.377,29.009-14.377l-11.519,18.771h0a7.3,7.3,0,0,1-3.242,3.584L883.643,715.573a22.781,22.781,0,0,1-20.605-.853L305.459,392.843a9.94,9.94,0,0,1-4.693-4.991h0Z" transform="translate(944.849 647.103)" fill="url(#linear-gradient-3)"/>
        <path id="Path_295" data-name="Path 295" d="M294.36,400.421l571.4,329.9a23.549,23.549,0,0,0,21.331.9l340.989-196.88c5.418-3.114,4.735-8.532-1.536-12.2l-571.4-329.9a23.548,23.548,0,0,0-21.331-.9L292.824,388.22C287.406,391.335,288.26,396.8,294.36,400.421Z" transform="translate(944.642 617.981)" fill="url(#linear-gradient-4)"/>
        <path id="Path_296" data-name="Path 296" d="M294.358,242.431l571.4,329.9a23.549,23.549,0,0,0,21.331.9l340.989-196.88a6.742,6.742,0,0,0,3.413-4.01,5.8,5.8,0,0,1-3.413,6.57L887.089,575.784a23.549,23.549,0,0,1-21.33-.9l-571.4-329.9c-4.053-2.346-5.717-5.461-4.949-8.191A9.812,9.812,0,0,0,294.358,242.431Z" transform="translate(944.644 773.411)" fill="#fff"/>
        <g id="Group_14" data-name="Group 14" transform="translate(1596.586 366.586)" opacity="0.15">
          <g id="Group_13" data-name="Group 13" clip-path="url(#clip-path)">
            <path id="Path_297" data-name="Path 297" d="M374.19,317.612l31.484,16.424,315.9-182.461a22.781,22.781,0,0,1,20.605.853l544.866,314.838c5.2-2.944,29.009-14.377,29.009-14.377L1304.5,471.661h0a7,7,0,0,1-3.2,3.583L968.542,667.219a22.865,22.865,0,0,1-20.648-.853l-557.451-322a9.939,9.939,0,0,1-4.693-4.991h0Z" transform="translate(-374.446 121.753)" fill="url(#linear-gradient-5)"/>
            <path id="Path_298" data-name="Path 298" d="M379.288,351.831l571.4,329.9a23.549,23.549,0,0,0,21.331.9l340.989-196.88c5.418-3.114,4.736-8.532-1.535-12.2L739.9,143.646a23.549,23.549,0,0,0-21.331-.9L377.88,339.63C372.334,342.744,373.017,348.205,379.288,351.831Z" transform="translate(-374.681 92.696)" fill="url(#linear-gradient-6)"/>
            <path id="Path_299" data-name="Path 299" d="M1042.072,473.528l-571.4-329.9a24.829,24.829,0,0,0-14.121-2.9,24.061,24.061,0,0,1,9.9,2.9l571.4,329.9c6.271,3.626,6.954,9.087,1.535,12.2L698.4,682.61a17.661,17.661,0,0,1-7,2,20.178,20.178,0,0,0,11.22-2.005l340.989-196.88C1049.026,482.615,1048.343,477.155,1042.072,473.528Z" transform="translate(-105.45 92.711)" fill="#fff"/>
            <g id="Group_12" data-name="Group 12" transform="translate(140.717 376.494)" opacity="0.5">
              <path id="Path_300" data-name="Path 300" d="M480.337,185.434l-18.344-10.58a6.058,6.058,0,0,0-5.546,0l-20.349,11.9c-1.621.939-1.706,2.389-.213,3.242l18.3,10.58a6.057,6.057,0,0,0,5.546,0l20.349-11.9C481.7,187.7,481.788,186.2,480.337,185.434Z" transform="translate(-317.138 -174.182)" fill="#24126a"/>
              <path id="Path_301" data-name="Path 301" d="M486.956,189.222l-18.344-10.537a6.058,6.058,0,0,0-5.546,0l-20.349,12.073c-1.578.939-1.706,2.389-.213,3.242l18.3,10.58a6.186,6.186,0,0,0,5.546,0l20.349-11.9C488.321,191.525,488.406,190.075,486.956,189.222Z" transform="translate(-295.472 -161.673)" fill="#24126a"/>
              <path id="Path_302" data-name="Path 302" d="M493.586,193.052l-18.3-10.537a6.143,6.143,0,0,0-5.589,0l-20.349,11.9c-1.578.939-1.706,2.389-.213,3.2l18.3,10.58a6.057,6.057,0,0,0,5.546,0l20.349-11.9C494.951,195.313,495.036,193.905,493.586,193.052Z" transform="translate(-273.818 -149.165)" fill="#24126a"/>
              <path id="Path_303" data-name="Path 303" d="M486.037,198.173l-18.3-10.58a6.271,6.271,0,0,0-5.589,0l-17.064,10.025c-1.621.9-1.706,2.346-.256,3.2l18.344,10.58a6.057,6.057,0,0,0,5.546,0l17.064-9.983C487.317,200.477,487.53,199.026,486.037,198.173Z" transform="translate(-287.813 -132.528)" fill="#24126a"/>
              <path id="Path_304" data-name="Path 304" d="M492.765,202.014l-18.472-10.58a6.058,6.058,0,0,0-5.546,0l-17.064,9.983c-1.621.939-1.706,2.389-.256,3.242l18.344,10.58a6.057,6.057,0,0,0,5.546,0l17.064-9.983C494.13,204.275,494.258,202.825,492.765,202.014Z" transform="translate(-266.257 -120.031)" fill="#24126a"/>
              <path id="Path_305" data-name="Path 305" d="M499.288,205.8l-18.3-10.537a6.058,6.058,0,0,0-5.546,0l-17.064,9.983c-1.578.939-1.706,2.389-.213,3.242l18.3,10.58a6.058,6.058,0,0,0,5.546,0l17.064-9.983C500.483,208.105,500.611,206.655,499.288,205.8Z" transform="translate(-244.325 -107.522)" fill="#24126a"/>
              <path id="Path_306" data-name="Path 306" d="M505.878,209.664l-18.3-10.58a6.058,6.058,0,0,0-5.546,0l-17.064,10.367c-1.578.939-1.706,2.389-.213,3.242l18.3,10.58a6.186,6.186,0,0,0,5.546,0l17.064-9.983C507.243,211.968,507.371,210.518,505.878,209.664Z" transform="translate(-222.801 -95.045)" fill="#24126a"/>
              <path id="Path_307" data-name="Path 307" d="M512.508,213.494l-18.3-10.58a6.058,6.058,0,0,0-5.546,0L471.6,212.9c-1.578.939-1.706,2.389-.213,3.2l18.3,10.58a6.057,6.057,0,0,0,5.546,0l17.064-9.983C513.873,215.8,514,214.348,512.508,213.494Z" transform="translate(-201.147 -82.536)" fill="#24126a"/>
              <path id="Path_308" data-name="Path 308" d="M519.138,217.324l-18.3-10.58a6.058,6.058,0,0,0-5.546,0l-17.064,9.983c-1.578.9-1.706,2.346-.213,3.2l18.3,10.58a6.186,6.186,0,0,0,5.546,0l17.064-9.983C520.5,219.628,520.631,218.178,519.138,217.324Z" transform="translate(-179.493 -70.027)" fill="#24126a"/>
              <path id="Path_309" data-name="Path 309" d="M525.768,221.154l-18.3-10.58a6.058,6.058,0,0,0-5.546,0l-17.064,9.983c-1.578.939-1.706,2.389-.213,3.242l18.3,10.58a6.058,6.058,0,0,0,5.546,0l17.064-9.983C527.133,223.415,527.261,222.008,525.768,221.154Z" transform="translate(-157.839 -57.518)" fill="#24126a"/>
              <path id="Path_310" data-name="Path 310" d="M532.4,224.942,514.1,214.4a6.058,6.058,0,0,0-5.546,0l-17.064,9.983c-1.578.939-1.706,2.389-.213,3.242l18.3,10.58a6.058,6.058,0,0,0,5.546,0l17.064-9.983C533.806,227.245,533.891,225.795,532.4,224.942Z" transform="translate(-136.184 -45.009)" fill="#24126a"/>
              <path id="Path_311" data-name="Path 311" d="M539.071,228.8l-18.344-10.58a6.058,6.058,0,0,0-5.546,0l-17.064,9.983c-1.578.939-1.706,2.389-.213,3.242l18.3,10.58a6.144,6.144,0,0,0,5.589,0l17.064-9.983C540.436,231.108,540.521,229.658,539.071,228.8Z" transform="translate(-114.53 -32.532)" fill="#24126a"/>
              <path id="Path_312" data-name="Path 312" d="M545.678,232.614l-18.344-10.58a6.058,6.058,0,0,0-5.546,0l-17.064,9.983c-1.578.939-1.706,2.389,0,3.242l18.3,10.537a6.143,6.143,0,0,0,5.588,0l17.064-9.983C547.043,235,547.128,233.553,545.678,232.614Z" transform="translate(-92.853 -20.088)" fill="#24126a"/>
              <path id="Path_313" data-name="Path 313" d="M483.277,203.615l-18.3-10.58a6.143,6.143,0,0,0-5.589,0l-17.065,9.983c-1.621.939-1.706,2.389-.256,3.242l18.344,10.58a6.228,6.228,0,0,0,5.546,0l17.064-9.983C484.642,206.046,484.728,204.6,483.277,203.615Z" transform="translate(-296.827 -114.805)" fill="#24126a"/>
              <path id="Path_314" data-name="Path 314" d="M476.547,199.753l-18.3-10.58a6.272,6.272,0,0,0-5.588,0l-17.065,9.983c-1.621.939-1.706,2.389-.256,3.242l18.344,10.58a6.058,6.058,0,0,0,5.546,0l17.065-9.983C477.912,202.057,478,200.606,476.547,199.753Z" transform="translate(-318.808 -127.368)" fill="#24126a"/>
              <path id="Path_315" data-name="Path 315" d="M485.958,205.215,446.5,182.435a6.057,6.057,0,0,0-5.546,0l-17.064,9.983c-1.579.939-1.706,2.389-.213,3.242l39.461,22.781a6.058,6.058,0,0,0,5.546,0l17.064-9.983C487.323,207.476,487.408,206.026,485.958,205.215Z" transform="translate(-356.972 -149.426)" fill="#24126a"/>
              <path id="Path_316" data-name="Path 316" d="M472.471,204.457l-32.038-18.472a6.058,6.058,0,0,0-5.546,0l-17.064,9.983c-1.621.939-1.706,2.389-.256,3.242l32.038,18.472a6.058,6.058,0,0,0,5.546,0l17.064-9.983C473.964,206.76,473.964,205.31,472.471,204.457Z" transform="translate(-376.847 -137.831)" fill="#24126a"/>
              <path id="Path_317" data-name="Path 317" d="M489.907,207.475l-18.3-10.58a6.143,6.143,0,0,0-5.589,0l-17.064,9.983c-1.621.939-1.706,2.389-.256,3.2l18.344,10.58a6.058,6.058,0,0,0,5.546,0l17.064-9.983C491.272,209.778,491.358,208.328,489.907,207.475Z" transform="translate(-275.173 -102.198)" fill="#24126a"/>
              <path id="Path_318" data-name="Path 318" d="M496.537,211.3l-18.3-10.58a6.143,6.143,0,0,0-5.589,0l-17.064,9.983c-1.621.939-1.706,2.346-.256,3.2l18.344,10.58a6.185,6.185,0,0,0,5.546,0l17.065-9.983C497.9,213.608,497.988,212.158,496.537,211.3Z" transform="translate(-253.519 -89.689)" fill="#24126a"/>
              <path id="Path_319" data-name="Path 319" d="M503.167,215.254l-18.3-10.751a6.271,6.271,0,0,0-5.588,0l-17.065,9.983c-1.621.939-1.706,2.389-.256,3.242l18.344,10.58a6.058,6.058,0,0,0,5.546,0l17.064-9.983C504.532,217.515,504.66,216.107,503.167,215.254Z" transform="translate(-231.865 -77.299)" fill="#24126a"/>
              <path id="Path_320" data-name="Path 320" d="M509.8,218.922l-18.3-10.537a6.143,6.143,0,0,0-5.589,0l-17.064,9.983c-1.621.939-1.706,2.389-.256,3.242l18.344,10.58a6.058,6.058,0,0,0,5.546,0l17.064-9.983C511.162,221.226,511.29,219.775,509.8,218.922Z" transform="translate(-210.211 -64.671)" fill="#24126a"/>
              <path id="Path_321" data-name="Path 321" d="M516.394,222.772l-18.3-10.58a6.186,6.186,0,0,0-5.546,0l-17.064,9.983c-1.621.938-1.706,2.389-.256,3.242L493.571,236a6.058,6.058,0,0,0,5.546,0l17.064-9.983C517.76,225.076,517.888,223.626,516.394,222.772Z" transform="translate(-188.524 -52.182)" fill="#24126a"/>
              <path id="Path_322" data-name="Path 322" d="M523.008,226.614l-18.3-10.58a6.058,6.058,0,0,0-5.546,0L482.1,226.017c-1.578.938-1.706,2.389-.213,3.242l18.3,10.537a6.058,6.058,0,0,0,5.546,0l17.064-9.983C524.2,228.918,524.5,227.468,523.008,226.614Z" transform="translate(-166.853 -39.685)" fill="#24126a"/>
              <path id="Path_323" data-name="Path 323" d="M529.638,230.444l-18.3-10.58a6.058,6.058,0,0,0-5.546,0l-17.064,9.983c-1.578.939-1.706,2.346-.213,3.2l18.3,10.921a6.058,6.058,0,0,0,5.546,0l17.065-9.983C531,232.748,531.131,231.17,529.638,230.444Z" transform="translate(-145.199 -27.176)" fill="#24126a"/>
              <path id="Path_324" data-name="Path 324" d="M536.288,234.262l-18.3-10.58a6.186,6.186,0,0,0-5.546,0l-17.064,10.025c-1.578.9-1.706,2.346-.213,3.2l18.3,10.58a6.058,6.058,0,0,0,5.546,0l17.064-9.983C537.568,236.566,537.7,235.116,536.288,234.262Z" transform="translate(-123.479 -14.655)" fill="#24126a"/>
              <path id="Path_325" data-name="Path 325" d="M542.9,238.137l-18.3-10.623a6.058,6.058,0,0,0-5.546,0L501.986,237.5c-1.578.939-1.706,2.389-.213,3.242l18.3,10.58a6.057,6.057,0,0,0,5.546,0l17.064-9.983C544.263,240.313,544.562,238.947,542.9,238.137Z" transform="translate(-101.89 -2.19)" fill="#24126a"/>
              <path id="Path_326" data-name="Path 326" d="M571.365,254.474l-40.1-23.08a6.057,6.057,0,0,0-5.546,0l-17.064,9.983c-1.578.939-1.664,2.389-.213,3.242l39.973,23.037a6.058,6.058,0,0,0,5.546,0l17.064-9.983C572.73,256.778,572.858,255.327,571.365,254.474Z" transform="translate(-80.06 10.483)" fill="#24126a"/>
              <path id="Path_327" data-name="Path 327" d="M554.339,258.8l-33.745-19.453a6.058,6.058,0,0,0-5.546,0l-17.064,9.983c-1.579.939-1.706,2.389,0,3.242l33.7,19.5a6.314,6.314,0,0,0,5.589,0l17.064-9.983C555.7,261.1,555.789,259.651,554.339,258.8Z" transform="translate(-114.867 36.448)" fill="#24126a"/>
              <path id="Path_328" data-name="Path 328" d="M488.987,214l-18.3-10.58a6.143,6.143,0,0,0-5.588,0l-17.065,9.983c-1.621.939-1.706,2.346-.256,3.2l18.344,10.58a6.185,6.185,0,0,0,5.546,0l17.065-9.983C490.48,216.308,490.48,214.858,488.987,214Z" transform="translate(-278.178 -80.871)" fill="#24126a"/>
              <path id="Path_329" data-name="Path 329" d="M482.138,210.052l-18.3-10.537a6.058,6.058,0,0,0-5.546,0L441.226,209.5c-1.579.939-1.706,2.389-.213,3.242l18.3,10.58a6.057,6.057,0,0,0,5.546,0l17.065-9.983C483.5,212.313,483.631,210.862,482.138,210.052Z" transform="translate(-300.338 -93.641)" fill="#24126a"/>
              <path id="Path_330" data-name="Path 330" d="M475.4,206.154l-18.344-10.58a6.058,6.058,0,0,0-5.546,0l-17.064,9.983c-1.621.939-1.706,2.389-.256,3.242l18.3,10.58a6.313,6.313,0,0,0,5.589,0l17.064-9.983C476.762,208.458,476.847,207.008,475.4,206.154Z" transform="translate(-322.564 -106.509)" fill="#24126a"/>
              <path id="Path_331" data-name="Path 331" d="M468.45,202.234l-18.174-10.58a6.058,6.058,0,0,0-5.546,0l-17.064,9.983c-1.578.939-1.706,2.346-.213,3.2l18.3,10.58a6.186,6.186,0,0,0,5.546,0l17.064-9.983C469.815,204.538,469.943,203.088,468.45,202.234Z" transform="translate(-344.627 -119.312)" fill="#24126a"/>
              <path id="Path_332" data-name="Path 332" d="M495.584,217.823l-18.259-10.58a6.271,6.271,0,0,0-5.589,0l-17.064,9.983c-1.621.939-1.706,2.389-.256,3.242l18.344,10.58a6.058,6.058,0,0,0,5.546,0l17.064-9.983C496.95,220.084,497.035,218.676,495.584,217.823Z" transform="translate(-256.491 -68.35)" fill="#24126a"/>
              <path id="Path_333" data-name="Path 333" d="M502.247,221.582l-18.3-10.537a6.143,6.143,0,0,0-5.589,0l-17.064,9.983c-1.621.939-1.706,2.389-.256,3.242l18.344,10.58a6.058,6.058,0,0,0,5.546,0l17.064-9.983C503.612,224.056,503.7,222.606,502.247,221.582Z" transform="translate(-234.869 -55.983)" fill="#24126a"/>
              <path id="Path_334" data-name="Path 334" d="M508.877,225.469l-18.3-10.58a6.314,6.314,0,0,0-5.589,0l-17.064,9.983c-1.621.938-1.706,2.389-.256,3.242l18.344,10.58a6.058,6.058,0,0,0,5.546,0l17.064-9.983C510.242,227.773,510.37,226.322,508.877,225.469Z" transform="translate(-213.215 -43.36)" fill="#24126a"/>
              <path id="Path_335" data-name="Path 335" d="M515.507,229.315l-18.3-10.58a6.143,6.143,0,0,0-5.589,0l-17.064,9.983c-1.621.939-1.706,2.389-.256,3.242L492.641,242.5a6.058,6.058,0,0,0,5.546,0l17.064-9.983C516.872,231.618,517,230.168,515.507,229.315Z" transform="translate(-191.561 -30.867)" fill="#24126a"/>
              <path id="Path_336" data-name="Path 336" d="M522.1,233.144l-18.3-10.58a6.058,6.058,0,0,0-5.546,0l-17.064,9.983c-1.621.939-1.706,2.346-.213,3.2l18.3,10.58a6.058,6.058,0,0,0,5.546,0l17.064-9.983C523.465,235.448,523.593,234,522.1,233.144Z" transform="translate(-169.869 -18.357)" fill="#24126a"/>
              <path id="Path_337" data-name="Path 337" d="M528.718,236.962l-18.3-10.58a6.186,6.186,0,0,0-5.546,0l-17.064,9.983c-1.578.939-1.706,2.389-.213,3.242l18.3,10.58a6.058,6.058,0,0,0,5.546,0L528.5,240.2C530.083,239.266,530.211,237.816,528.718,236.962Z" transform="translate(-148.204 -5.836)" fill="#24126a"/>
              <path id="Path_338" data-name="Path 338" d="M535.325,240.8l-18.3-10.58a6.058,6.058,0,0,0-5.546,0l-17.064,9.983c-1.578.939-1.706,2.389,0,3.242l18.3,10.58a6.058,6.058,0,0,0,5.546,0l17.064-9.983C536.69,243.065,536.818,241.615,535.325,240.8Z" transform="translate(-126.526 6.661)" fill="#24126a"/>
              <path id="Path_339" data-name="Path 339" d="M541.955,244.6l-18.3-10.58a6.186,6.186,0,0,0-5.546,0l-17.064,9.983c-1.578.939-1.706,2.389,0,3.242l18.3,10.58a6.057,6.057,0,0,0,5.546,0l17.064-9.983A1.821,1.821,0,0,0,541.955,244.6Z" transform="translate(-104.872 19.117)" fill="#24126a"/>
              <path id="Path_340" data-name="Path 340" d="M548.706,248.454l-18.43-10.58a6.058,6.058,0,0,0-5.546,0l-17.064,9.983c-1.578.939-1.706,2.389-.213,3.242l18.557,10.836a6.185,6.185,0,0,0,5.546,0l17.064-9.983C550.071,250.758,550.2,249.137,548.706,248.454Z" transform="translate(-83.339 31.647)" fill="#24126a"/>
              <path id="Path_341" data-name="Path 341" d="M472.928,211.8l-18.344-10.58a6.186,6.186,0,0,0-5.546,0l-17.064,9.983c-1.578.939-1.706,2.389,0,3.242l18.3,10.58a6.143,6.143,0,0,0,5.589,0l17.064-9.983C474.506,214.063,474.506,212.656,472.928,211.8Z" transform="translate(-330.461 -88.011)" fill="#24126a"/>
              <path id="Path_342" data-name="Path 342" d="M466.337,208l-18.344-10.58a6.058,6.058,0,0,0-5.546,0l-17.064,9.983c-1.621.9-1.706,2.346-.256,3.2l18.344,10.58a6.186,6.186,0,0,0,5.546,0l17.065-10.025C467.83,210.308,467.915,208.857,466.337,208Z" transform="translate(-352.155 -100.467)" fill="#24126a"/>
              <path id="Path_343" data-name="Path 343" d="M459.767,204.195l-18.3-10.58a6.143,6.143,0,0,0-5.589,0L418.813,203.6c-1.621.938-1.706,2.346-.256,3.2l18.344,10.58a6.186,6.186,0,0,0,5.546,0l17.064-9.983C461.132,206.5,461.26,205.048,459.767,204.195Z" transform="translate(-373.613 -112.911)" fill="#24126a"/>
              <path id="Path_344" data-name="Path 344" d="M453.118,200.384l-18.3-10.58a6.057,6.057,0,0,0-5.546,0l-17.064,9.983c-1.578.939-1.706,2.389-.213,3.2l18.3,10.58a6.058,6.058,0,0,0,5.546,0l17.064-9.983C454.483,202.688,454.611,201.365,453.118,200.384Z" transform="translate(-395.121 -125.354)" fill="#24126a"/>
              <path id="Path_345" data-name="Path 345" d="M438.015,204.114l-18.344-10.58a6.057,6.057,0,0,0-5.546,0l-5.674,3.285c-1.578.939-1.664,2.389,0,3.242l18.3,10.58a6.143,6.143,0,0,0,5.589,0l5.631-3.285C439.38,206.247,439.465,204.968,438.015,204.114Z" transform="translate(-407.235 -113.172)" fill="#24126a"/>
              <path id="Path_346" data-name="Path 346" d="M446.6,209.052l-18.3-10.537a6.058,6.058,0,0,0-5.546,0l-5.674,3.285c-1.578.939-1.664,2.389-.213,3.242l18.3,10.58a6.144,6.144,0,0,0,5.589,0l5.631-3.285C448.012,211.313,448.1,209.9,446.6,209.052Z" transform="translate(-379.136 -96.907)" fill="#24126a"/>
              <path id="Path_347" data-name="Path 347" d="M453.175,212.884l-18.3-10.58a6.057,6.057,0,0,0-5.546,0l-5.674,3.328c-1.578.939-1.664,2.346-.213,3.2l18.3,10.58a6.144,6.144,0,0,0,5.589,0l5.631-3.327C454.8,215.145,454.8,213.738,453.175,212.884Z" transform="translate(-357.678 -84.528)" fill="#24126a"/>
              <path id="Path_348" data-name="Path 348" d="M459.722,216.674l-18.3-10.58a6.058,6.058,0,0,0-5.546,0l-5.674,3.285c-1.578.939-1.664,2.389,0,3.242l18.3,10.58a6.314,6.314,0,0,0,5.589,0l5.631-3.285C461.13,218.978,461.216,217.527,459.722,216.674Z" transform="translate(-336.198 -72.15)" fill="#24126a"/>
              <path id="Path_349" data-name="Path 349" d="M466.335,220.464l-18.344-10.58a6.057,6.057,0,0,0-5.546,0l-5.674,3.285c-1.578.939-1.664,2.389,0,3.242l18.3,10.58a6.144,6.144,0,0,0,5.589,0l5.631-3.285C467.7,222.768,467.785,221.318,466.335,220.464Z" transform="translate(-314.739 -59.771)" fill="#24126a"/>
              <path id="Path_350" data-name="Path 350" d="M502.985,241.614l-18.3-10.58a6.058,6.058,0,0,0-5.546,0l-5.674,3.285c-1.578.939-1.706,2.389,0,3.242l18.3,10.58a6.144,6.144,0,0,0,5.589,0l5.631-3.285C504.35,244.046,504.478,242.6,502.985,241.614Z" transform="translate(-194.951 9.307)" fill="#24126a"/>
              <path id="Path_351" data-name="Path 351" d="M509.545,245.434l-18.3-10.58a6.058,6.058,0,0,0-5.546,0l-5.674,3.285c-1.578.939-1.706,2.389,0,3.242l18.3,10.58a6.143,6.143,0,0,0,5.589,0l5.631-3.285C510.953,247.738,511.08,246.2,509.545,245.434Z" transform="translate(-173.526 21.783)" fill="#24126a"/>
              <path id="Path_352" data-name="Path 352" d="M516.147,249.234l-18.3-10.58a6.058,6.058,0,0,0-5.546,0l-5.674,3.328c-1.578.939-1.706,2.346-.213,3.2l18.3,10.58a6.144,6.144,0,0,0,5.589,0l5.631-3.328C517.555,251.5,517.641,250.045,516.147,249.234Z" transform="translate(-152.058 34.194)" fill="#24126a"/>
              <path id="Path_353" data-name="Path 353" d="M522.718,253.024l-18.3-10.58a6.058,6.058,0,0,0-5.546,0l-5.674,3.285c-1.578.939-1.706,2.389-.213,3.242l18.3,10.58a6.314,6.314,0,0,0,5.589,0l5.631-3.285C524.125,255.541,524.211,253.878,522.718,253.024Z" transform="translate(-130.599 46.573)" fill="#24126a"/>
              <path id="Path_354" data-name="Path 354" d="M479.558,215.614l-18.344-10.58a6.057,6.057,0,0,0-5.546,0L438.6,215.017c-1.578.939-1.706,2.389,0,3.242l18.3,10.58a6.143,6.143,0,0,0,5.589,0l17.064-9.983A1.772,1.772,0,0,0,479.558,215.614Z" transform="translate(-308.807 -75.612)" fill="#24126a"/>
              <path id="Path_355" data-name="Path 355" d="M486.176,219.449l-18.344-10.58a6.229,6.229,0,0,0-5.546,0l-17.064,9.983c-1.578.939-1.664,2.389,0,3.242l18.3,10.58a6.144,6.144,0,0,0,5.589,0l17.064-9.983C487.541,221.752,487.626,220.3,486.176,219.449Z" transform="translate(-287.141 -63.022)" fill="#24126a"/>
              <path id="Path_356" data-name="Path 356" d="M492.857,223.294l-18.344-10.58a6.057,6.057,0,0,0-5.546,0L451.9,222.7c-1.621.939-1.706,2.389-.256,3.242l18.3,10.537a6.143,6.143,0,0,0,5.589,0l17.064-9.983C494.222,225.6,494.307,224.148,492.857,223.294Z" transform="translate(-265.538 -50.528)" fill="#24126a"/>
              <path id="Path_357" data-name="Path 357" d="M499.487,227.124l-18.344-10.58a6.057,6.057,0,0,0-5.546,0l-17.064,9.983c-1.621.939-1.706,2.389-.256,3.2l18.3,10.58a6.144,6.144,0,0,0,5.589,0l17.064-9.983C500.852,229.428,500.937,227.978,499.487,227.124Z" transform="translate(-243.884 -38.019)" fill="#24126a"/>
              <path id="Path_358" data-name="Path 358" d="M506.117,230.942l-18.344-10.58a6.186,6.186,0,0,0-5.546,0l-17.064,10.025c-1.621.9-1.706,2.346-.256,3.2l18.344,10.58a6.057,6.057,0,0,0,5.546,0l17.064-9.983C507.482,233.246,507.567,231.8,506.117,230.942Z" transform="translate(-222.23 -25.498)" fill="#24126a"/>
              <path id="Path_359" data-name="Path 359" d="M512.747,234.785l-18.3-10.58a6.144,6.144,0,0,0-5.589,0l-17.064,9.983c-1.621.939-1.706,2.389-.256,3.242l18.344,10.58a6.057,6.057,0,0,0,5.546,0l17.064-9.983C514.112,237.046,514.2,235.6,512.747,234.785Z" transform="translate(-200.576 -13.001)" fill="#24126a"/>
              <path id="Path_360" data-name="Path 360" d="M519.337,238.582l-18.3-10.537a6.144,6.144,0,0,0-5.589,0l-17.064,9.983c-1.621.939-1.706,2.389-.256,3.242l18.344,10.58a6.058,6.058,0,0,0,5.546,0l17.064-9.983C520.873,240.843,520.958,239.393,519.337,238.582Z" transform="translate(-179.052 -0.459)" fill="#24126a"/>
              <path id="Path_361" data-name="Path 361" d="M526.007,242.435l-18.3-10.58a6.144,6.144,0,0,0-5.589,0l-17.064,9.983c-1.621.939-1.706,2.389-.256,3.242l18.344,10.58a6.229,6.229,0,0,0,5.546,0l17.064-9.983C527.415,244.738,527.415,243.2,526.007,242.435Z" transform="translate(-157.267 11.985)" fill="#24126a"/>
              <path id="Path_362" data-name="Path 362" d="M532.67,246.265l-18.344-10.58a6.143,6.143,0,0,0-5.589,0l-17.064,9.983c-1.621.939-1.706,2.389-.256,3.2l18.344,10.58a6.058,6.058,0,0,0,5.546,0l17.064-9.983C534.035,248.568,534.163,247.118,532.67,246.265Z" transform="translate(-135.646 24.494)" fill="#24126a"/>
              <path id="Path_363" data-name="Path 363" d="M506.5,210.027l-53.924-31.143a6.058,6.058,0,0,0-5.546,0l-17.064,9.983c-1.578.939-1.706,2.389-.213,3.242l53.924,31.142a6.058,6.058,0,0,0,5.546,0l17.064-9.983C507.865,212.288,507.993,210.88,506.5,210.027Z" transform="translate(-337.115 -161.02)" fill="#24126a"/>
              <path id="Path_364" data-name="Path 364" d="M588.009,257.057l-53.924-31.143a6.144,6.144,0,0,0-5.589,0L511.433,235.9c-1.621.939-1.706,2.389-.256,3.242l53.966,31.143a6.057,6.057,0,0,0,5.546,0l17.065-9.983C589.374,259.318,589.5,257.91,588.009,257.057Z" transform="translate(-71.107 -7.416)" fill="#24126a"/>
              <path id="Path_365" data-name="Path 365" d="M550.919,226.2l-18.3-10.58a6.058,6.058,0,0,0-5.546,0l-20.349,11.9c-1.621.939-1.706,2.389-.256,3.242l18.3,10.58a6.143,6.143,0,0,0,5.589,0l20.349-11.9C552.284,228.465,552.413,227.058,550.919,226.2Z" transform="translate(-86.491 -41.024)" fill="#24126a"/>
              <path id="Path_366" data-name="Path 366" d="M511.426,203.369,482.16,186.3a6.143,6.143,0,0,0-5.589,0l-20.605,12.2c-1.578.9-1.706,2.346-.213,3.2l29.265,17.064a6.143,6.143,0,0,0,5.589,0l20.349-11.9C512.577,205.63,512.705,204.265,511.426,203.369Z" transform="translate(-252.196 -136.786)" fill="#24126a"/>
              <path id="Path_367" data-name="Path 367" d="M552.959,227.479l-29.308-17.064a6.058,6.058,0,0,0-5.546,0l-20.392,11.9c-1.578.939-1.706,2.389,0,3.2l29.308,17.064a6.058,6.058,0,0,0,5.546,0l20.349-11.9C554.154,229.783,554.41,228.332,552.959,227.479Z" transform="translate(-115.748 -58.04)" fill="#24126a"/>
              <path id="Path_368" data-name="Path 368" d="M520.766,208.889l-29.308-17.064a6.058,6.058,0,0,0-5.546,0l-20.349,11.9c-1.621.939-1.706,2.389-.256,3.242l29.308,17.064a6.058,6.058,0,0,0,5.546,0l20.349-11.86C522.131,211.193,522.216,209.742,520.766,208.889Z" transform="translate(-220.923 -118.757)" fill="#24126a"/>
              <path id="Path_369" data-name="Path 369" d="M464.57,206.856,591.913,280.4a6.271,6.271,0,0,0,5.588,0l20.733-12.158c1.493-.853,1.408-2.3,0-3.2L490.721,191.37Z" transform="translate(-219.973 -118.047)" fill="#24126a"/>
              <path id="Path_370" data-name="Path 370" d="M529.027,234.245l20.392,11.945a5.077,5.077,0,0,0,4.565,0l8.532-4.863c1.322-.768,1.408-1.962,0-2.645l-20.392-11.774a4.948,4.948,0,0,0-4.565,0l-8.319,4.863C527.875,232.368,527.662,233.392,529.027,234.245Z" transform="translate(-12.467 -3.801)" fill="#24126a"/>
              <path id="Path_371" data-name="Path 371" d="M522.292,230.515l20.392,11.774a5.077,5.077,0,0,0,4.565,0l8.319-4.863c1.322-.768,1.408-1.962.213-2.645l-20.434-11.774a4.864,4.864,0,0,0-4.522,0l-8.532,4.863C521.182,228.638,521.1,229.79,522.292,230.515Z" transform="translate(-34.271 -16.539)" fill="#24126a"/>
              <path id="Path_372" data-name="Path 372" d="M515.662,226.673l20.392,11.774a5.077,5.077,0,0,0,4.565,0l8.319-4.863c1.323-.768,1.408-1.962.213-2.645l-20.434-11.774a4.992,4.992,0,0,0-4.522,0l-8.532,4.863C514.552,224.8,514.467,225.99,515.662,226.673Z" transform="translate(-55.926 -29.035)" fill="#24126a"/>
              <path id="Path_373" data-name="Path 373" d="M518.823,232.513l20.392,11.774a4.948,4.948,0,0,0,4.565,0l8.532-4.863c1.323-.768,1.408-1.92,0-2.645L531.921,225a5.077,5.077,0,0,0-4.565,0l-8.319,4.863C517.714,230.636,517.629,231.831,518.823,232.513Z" transform="translate(-45.521 -9.962)" fill="#24126a"/>
            </g>
          </g>
        </g>
        <g id="Group_15" data-name="Group 15" transform="translate(1482.554 883.388)" opacity="0.8">
          <path id="Path_375" data-name="Path 375" d="M366.632,250.736,348.5,240.284c-1.451-.853-1.28-2.3.427-3.285l21.33-12.372a6.356,6.356,0,0,1,5.674-.213l18.131,10.452c1.451.853,1.28,2.3-.427,3.285l-21.331,12.372A6.313,6.313,0,0,1,366.632,250.736Z" transform="translate(-347.52 -152.281)" fill="#24126a"/>
          <path id="Path_376" data-name="Path 376" d="M373.245,254.533l-18.131-10.495c-1.451-.853-1.28-2.3.384-3.285l21.331-12.372a6.356,6.356,0,0,1,5.674,0l18.174,10.452c1.45.853,1.237,2.346-.427,3.285L378.919,254.49a6.357,6.357,0,0,1-5.674.043Z" transform="translate(-325.934 -139.654)" fill="#24126a"/>
          <path id="Path_377" data-name="Path 377" d="M379.834,258.355,361.66,247.861c-1.451-.811-1.237-2.3.427-3.285l21.33-12.329a6.229,6.229,0,0,1,5.674-.256l18.131,10.495c1.451.811,1.28,2.3-.384,3.242L385.508,258.1a6.357,6.357,0,0,1-5.674.256Z" transform="translate(-304.495 -127.521)" fill="#24126a"/>
          <path id="Path_378" data-name="Path 378" d="M388.941,253.712l-18.174-10.495c-1.493-.853-1.28-2.3.384-3.285l17.96-10.367a6.441,6.441,0,0,1,5.717-.256L412.959,239.8c1.451.853,1.28,2.3-.427,3.285l-17.96,10.367a6.357,6.357,0,0,1-5.631.256Z" transform="translate(-274.866 -136.23)" fill="#24126a"/>
          <path id="Path_379" data-name="Path 379" d="M395.452,257.495,377.321,247c-1.45-.811-1.28-2.3.427-3.285l17.96-10.367a6.229,6.229,0,0,1,5.674-.213l18.174,10.452c1.451.853,1.237,2.3-.427,3.285l-17.96,10.367A6.442,6.442,0,0,1,395.452,257.495Z" transform="translate(-253.391 -123.845)" fill="#24126a"/>
          <path id="Path_380" data-name="Path 380" d="M402.025,261.285,383.894,250.79c-1.45-.811-1.28-2.3.384-3.285l18-10.367a6.229,6.229,0,0,1,5.674-.213l18.131,10.452c1.45.853,1.28,2.3-.384,3.285l-18,10.367a6.229,6.229,0,0,1-5.674.256Z" transform="translate(-231.936 -111.467)" fill="#24126a"/>
          <path id="Path_381" data-name="Path 381" d="M408.648,265l-18.131-10.452c-1.493-.853-1.28-2.346.384-3.285l17.96-10.409a6.442,6.442,0,0,1,5.716,0L432.709,251.3c1.451.853,1.28,2.3-.427,3.285l-17.96,10.367A6.228,6.228,0,0,1,408.648,265Z" transform="translate(-210.36 -98.926)" fill="#24126a"/>
          <path id="Path_382" data-name="Path 382" d="M415.152,268.853,397.021,258.4c-1.451-.853-1.28-2.346.427-3.285l17.96-10.409a6.357,6.357,0,0,1,5.674-.213l18.174,10.452c1.45.853,1.237,2.346-.427,3.285l-17.96,10.409a6.443,6.443,0,0,1-5.717.213Z" transform="translate(-189.049 -86.698)" fill="#24126a"/>
          <path id="Path_383" data-name="Path 383" d="M421.725,272.64l-18.131-10.452c-1.451-.853-1.28-2.3.384-3.285l18-10.367a6.23,6.23,0,0,1,5.674-.256l18.131,10.495c1.451.811,1.28,2.3-.384,3.242l-18,10.409a6.356,6.356,0,0,1-5.674.213Z" transform="translate(-167.594 -74.316)" fill="#24126a"/>
          <path id="Path_384" data-name="Path 384" d="M428.308,276.43l-18.131-10.452c-1.493-.853-1.28-2.3.384-3.285l17.96-10.367a6.314,6.314,0,0,1,5.717-.256l18.131,10.495c1.45.811,1.28,2.3-.427,3.285l-17.917,10.366a6.229,6.229,0,0,1-5.717.214Z" transform="translate(-146.149 -61.938)" fill="#24126a"/>
          <path id="Path_385" data-name="Path 385" d="M434.754,280.251l-18-10.495c-1.451-.853-1.28-2.3.427-3.285l17.96-10.367a6.356,6.356,0,0,1,5.674-.256l18.174,10.495c1.45.853,1.237,2.3-.427,3.285L440.6,280a6.442,6.442,0,0,1-5.845.256Z" transform="translate(-124.609 -49.548)" fill="#24126a"/>
          <path id="Path_386" data-name="Path 386" d="M441.425,284.041l-18.131-10.495c-1.451-.853-1.28-2.3.384-3.285l18-10.367a6.356,6.356,0,0,1,5.674-.256l18.131,10.494c1.451.853,1.28,2.3-.384,3.285l-18,10.367a6.358,6.358,0,0,1-5.674.256Z" transform="translate(-103.252 -37.169)" fill="#24126a"/>
          <path id="Path_387" data-name="Path 387" d="M448.008,287.825l-18.131-10.495c-1.493-.811-1.28-2.3.384-3.285l17.96-10.367a6.315,6.315,0,0,1,5.717-.213l18.131,10.452c1.451.853,1.28,2.3-.427,3.285l-17.96,10.367a6.357,6.357,0,0,1-5.674.256Z" transform="translate(-81.807 -24.785)" fill="#24126a"/>
          <path id="Path_388" data-name="Path 388" d="M398.562,251.893l-18.131-10.452c-1.451-.853-1.28-2.346.427-3.285l17.96-10.409a6.356,6.356,0,0,1,5.674-.213l18.131,10.452c1.493.853,1.28,2.346-.384,3.285l-17.96,10.409a6.442,6.442,0,0,1-5.717.213Z" transform="translate(-243.234 -142.091)" fill="#24126a"/>
          <path id="Path_389" data-name="Path 389" d="M391.97,248.211l-18.216-10.623c-1.45-.853-1.28-2.3.384-3.285l18-10.367a6.229,6.229,0,0,1,5.674-.256l18.131,10.495c1.45.811,1.28,2.3-.427,3.285l-17.96,10.367a6.228,6.228,0,0,1-5.588.384Z" transform="translate(-265.054 -154.662)" fill="#24126a"/>
          <path id="Path_390" data-name="Path 390" d="M401.242,253.448l-39.035-22.568c-1.493-.853-1.28-2.3.384-3.285l17.96-10.367a6.314,6.314,0,0,1,5.717-.213L425.3,239.541c1.493.853,1.28,2.3-.384,3.285l-17.96,10.367a6.314,6.314,0,0,1-5.717.256Z" transform="translate(-302.824 -176.495)" fill="#24126a"/>
          <path id="Path_391" data-name="Path 391" d="M400.281,245.5l-31.7-18.3c-1.451-.853-1.28-2.3.384-3.285l18-10.367a6.356,6.356,0,0,1,5.674-.256l31.7,18.344c1.451.811,1.28,2.3-.427,3.242l-17.96,10.409a6.357,6.357,0,0,1-5.674.213Z" transform="translate(-281.94 -188.553)" fill="#24126a"/>
          <path id="Path_392" data-name="Path 392" d="M405.135,255.68,387,245.228c-1.45-.853-1.28-2.3.384-3.285l18-10.367a6.229,6.229,0,0,1,5.674-.256L429.2,241.815c1.45.811,1.28,2.3-.384,3.242l-18,10.409a6.228,6.228,0,0,1-5.674.213Z" transform="translate(-221.778 -129.709)" fill="#24126a"/>
          <path id="Path_393" data-name="Path 393" d="M411.724,259.459,393.55,249.007c-1.451-.853-1.237-2.3.427-3.285l17.96-10.367a6.442,6.442,0,0,1,5.717-.256l18.131,10.495c1.45.811,1.28,2.3-.427,3.285L417.4,259.246a6.228,6.228,0,0,1-5.674.213Z" transform="translate(-200.339 -117.32)" fill="#24126a"/>
          <path id="Path_394" data-name="Path 394" d="M418.262,263.291,400.131,252.8c-1.45-.853-1.28-2.3.427-3.285l17.96-10.367a6.356,6.356,0,0,1,5.674-.256l18.131,10.495c1.493.853,1.28,2.3-.384,3.285l-17.832,10.367a6.442,6.442,0,0,1-5.845.256Z" transform="translate(-178.891 -104.941)" fill="#24126a"/>
          <path id="Path_395" data-name="Path 395" d="M424.672,267.166l-17.918-10.58c-1.451-.853-1.28-2.3.384-3.285l18-10.367a6.357,6.357,0,0,1,5.674-.256l18.131,10.495c1.451.853,1.28,2.3-.384,3.285l-18,10.367a6.356,6.356,0,0,1-5.887.341Z" transform="translate(-157.273 -92.562)" fill="#24126a"/>
          <path id="Path_396" data-name="Path 396" d="M431.424,270.865,413.25,260.371c-1.45-.811-1.237-2.3.427-3.285l17.96-10.367a6.314,6.314,0,0,1,5.717-.213l18.131,10.452c1.451.853,1.28,2.3-.427,3.285L437.1,270.609a6.357,6.357,0,0,1-5.674.256Z" transform="translate(-135.997 -80.178)" fill="#24126a"/>
          <path id="Path_397" data-name="Path 397" d="M437.962,274.655,419.831,264.16c-1.451-.811-1.28-2.3.427-3.285l17.96-10.367a6.229,6.229,0,0,1,5.674-.213l18.259,10.452c1.493.853,1.28,2.3-.384,3.285L443.807,274.4a6.314,6.314,0,0,1-5.845.256Z" transform="translate(-114.549 -67.799)" fill="#24126a"/>
          <path id="Path_398" data-name="Path 398" d="M444.535,278.433,426.4,267.981c-1.45-.853-1.28-2.346.384-3.285l18-10.409a6.356,6.356,0,0,1,5.674-.213L468.6,264.526c1.45.853,1.28,2.3-.384,3.285l-18,10.367a6.228,6.228,0,0,1-5.674.256Z" transform="translate(-93.094 -55.409)" fill="#24126a"/>
          <path id="Path_399" data-name="Path 399" d="M451.124,282.224,432.95,271.772c-1.45-.853-1.237-2.346.427-3.285l17.96-10.409a6.442,6.442,0,0,1,5.717-.213l18.131,10.452c1.451.853,1.28,2.346-.427,3.285L456.8,282.01a6.357,6.357,0,0,1-5.674.213Z" transform="translate(-71.655 -43.031)" fill="#24126a"/>
          <path id="Path_400" data-name="Path 400" d="M457.632,286.01,439.5,275.558c-1.45-.853-1.28-2.3.427-3.285l17.96-10.367a6.229,6.229,0,0,1,5.674-.256l18.131,10.494c1.493.811,1.28,2.3-.384,3.242L463.349,285.8a6.443,6.443,0,0,1-5.717.213Z" transform="translate(-50.305 -30.648)" fill="#24126a"/>
          <path id="Path_401" data-name="Path 401" d="M485.77,302.225,446.181,279.4c-1.45-.853-1.28-2.346.427-3.285l17.96-10.409a6.356,6.356,0,0,1,5.674-.214l39.589,22.866c1.451.811,1.28,2.3-.427,3.242l-18.131,10.409a6.358,6.358,0,0,1-5.5.213Z" transform="translate(-28.488 -18.11)" fill="#24126a"/>
          <path id="Path_402" data-name="Path 402" d="M493.815,292.119l-33.4-19.283c-1.451-.853-1.28-2.3.427-3.285l17.96-10.367a6.357,6.357,0,0,1,5.674-.256l33.4,19.283c1.451.853,1.28,2.346-.384,3.285l-18,10.409a6.357,6.357,0,0,1-5.674.213Z" transform="translate(17.989 -39.488)" fill="#24126a"/>
          <path id="Path_403" data-name="Path 403" d="M416.635,254.858,398.5,244.406c-1.451-.853-1.28-2.346.384-3.285l18-10.409a6.356,6.356,0,0,1,5.674,0L440.7,241.164c1.45.853,1.28,2.346-.384,3.285l-18,10.409a6.357,6.357,0,0,1-5.674,0Z" transform="translate(-184.218 -132.044)" fill="#24126a"/>
          <path id="Path_404" data-name="Path 404" d="M409.97,251.166l-18.216-10.58c-1.45-.853-1.28-2.3.384-3.285l18-10.367a6.356,6.356,0,0,1,5.674-.256l18.131,10.495c1.45.853,1.28,2.3-.384,3.285l-18,10.367A6.357,6.357,0,0,1,409.97,251.166Z" transform="translate(-206.265 -144.82)" fill="#24126a"/>
          <path id="Path_405" data-name="Path 405" d="M403.175,247.173l-18.131-10.495c-1.451-.811-1.28-2.3.384-3.242l18-10.409a6.356,6.356,0,0,1,5.674-.213l18.131,10.452c1.451.853,1.28,2.3-.384,3.285l-18,10.239a6.229,6.229,0,0,1-5.674.384Z" transform="translate(-228.18 -157.507)" fill="#24126a"/>
          <path id="Path_406" data-name="Path 406" d="M396.445,243.268l-18.131-10.452c-1.45-.853-1.28-2.3.384-3.285l18-10.367a6.356,6.356,0,0,1,5.674-.256L420.506,229.4c1.45.811,1.28,2.3-.384,3.285l-18,10.367a6.228,6.228,0,0,1-5.674.213Z" transform="translate(-250.161 -170.197)" fill="#24126a"/>
          <path id="Path_407" data-name="Path 407" d="M423.224,258.73,405.05,248.279c-1.451-.853-1.237-2.3.427-3.285l17.96-10.367a6.314,6.314,0,0,1,5.717-.256l18.131,10.495c1.45.811,1.28,2.3-.427,3.242L428.9,258.517a6.356,6.356,0,0,1-5.674.213Z" transform="translate(-162.779 -119.748)" fill="#24126a"/>
          <path id="Path_408" data-name="Path 408" d="M429.762,262.488l-18.131-10.409c-1.45-.853-1.28-2.3.427-3.285l17.96-10.367a6.229,6.229,0,0,1,5.674-.256l18.131,10.495c1.493.811,1.28,2.3-.384,3.285l-17.96,10.367a6.313,6.313,0,0,1-5.717.171Z" transform="translate(-141.331 -107.337)" fill="#24126a"/>
          <path id="Path_409" data-name="Path 409" d="M436.335,266.3,418.2,255.847c-1.451-.853-1.28-2.3.384-3.285l18-10.367a6.356,6.356,0,0,1,5.674-.256L460.4,252.434c1.451.811,1.28,2.3-.427,3.285l-18.088,10.367a6.229,6.229,0,0,1-5.546.213Z" transform="translate(-119.876 -94.979)" fill="#24126a"/>
          <path id="Path_410" data-name="Path 410" d="M442.956,270,424.74,259.637c-1.451-.853-1.237-2.3.427-3.285l17.96-10.367a6.442,6.442,0,0,1,5.716-.256l18.131,10.495c1.451.853,1.28,2.3-.427,3.285L448.63,270a6.356,6.356,0,0,1-5.674,0Z" transform="translate(-98.469 -82.601)" fill="#24126a"/>
          <path id="Path_411" data-name="Path 411" d="M449.462,273.829l-18.131-10.495c-1.451-.853-1.28-2.3.427-3.285l17.96-10.367a6.228,6.228,0,0,1,5.674,0l18.131,10.452c1.493.853,1.28,2.3-.384,3.285l-17.96,10.367A6.443,6.443,0,0,1,449.462,273.829Z" transform="translate(-76.989 -70.13)" fill="#24126a"/>
          <path id="Path_412" data-name="Path 412" d="M456.035,277.619,437.9,267.125c-1.45-.811-1.28-2.3.384-3.285l18-10.367a6.229,6.229,0,0,1,5.674,0L480.1,263.925c1.45.853,1.28,2.3-.427,3.285l-17.96,10.367a6.228,6.228,0,0,1-5.674.043Z" transform="translate(-55.534 -57.752)" fill="#24126a"/>
          <path id="Path_413" data-name="Path 413" d="M462.654,281.483,444.48,270.989c-1.45-.811-1.237-2.3.427-3.242l17.96-10.409a6.357,6.357,0,0,1,5.674-.213l18.174,10.452c1.451.853,1.28,2.3-.427,3.285l-17.96,10.367A6.227,6.227,0,0,1,462.654,281.483Z" transform="translate(-33.996 -45.447)" fill="#24126a"/>
          <path id="Path_414" data-name="Path 414" d="M469.162,285.188l-18.131-10.452c-1.45-.853-1.28-2.346.427-3.285l17.96-10.409a6.356,6.356,0,0,1,5.674,0l18.131,10.452c1.493.853,1.28,2.346-.384,3.285l-18,10.409A6.357,6.357,0,0,1,469.162,285.188Z" transform="translate(-12.647 -32.983)" fill="#24126a"/>
          <path id="Path_415" data-name="Path 415" d="M475.735,289.08,457.6,278.628c-1.451-.853-1.28-2.3.384-3.285l18-10.367a6.229,6.229,0,0,1,5.674-.256L499.8,275.215c1.451.811,1.28,2.3-.427,3.242l-17.96,10.409a6.357,6.357,0,0,1-5.674.213Z" transform="translate(8.808 -20.622)" fill="#24126a"/>
          <path id="Path_416" data-name="Path 416" d="M413.172,245.658l-18.131-10.58c-1.45-.853-1.28-2.3.427-3.285l17.96-10.367a6.229,6.229,0,0,1,5.674-.256l18.131,10.495c1.45.811,1.28,2.3-.384,3.285l-18,10.367a6.228,6.228,0,0,1-5.674.341Z" transform="translate(-195.516 -162.86)" fill="#24126a"/>
          <path id="Path_417" data-name="Path 417" d="M406.648,241.794l-18.131-10.452c-1.493-.853-1.28-2.346.384-3.285l17.96-10.409a6.442,6.442,0,0,1,5.717-.213l18.131,10.452c1.45.853,1.28,2.346-.427,3.285l-17.96,10.409A6.356,6.356,0,0,1,406.648,241.794Z" transform="translate(-216.893 -175.079)" fill="#24126a"/>
          <path id="Path_418" data-name="Path 418" d="M400.1,238.035,381.971,227.54c-1.451-.811-1.28-2.3.427-3.285l17.96-10.367a6.229,6.229,0,0,1,5.674-.213l18.173,10.452c1.45.853,1.237,2.3-.427,3.285l-17.96,10.367a6.313,6.313,0,0,1-5.717.256Z" transform="translate(-238.204 -187.403)" fill="#24126a"/>
          <path id="Path_419" data-name="Path 419" d="M393.575,234.271l-18.131-10.495c-1.45-.853-1.28-2.3.384-3.285l18-10.367a6.357,6.357,0,0,1,5.674-.256l18.131,10.495c1.45.853,1.28,2.3-.384,3.285l-18,10.367a6.357,6.357,0,0,1-5.674.256Z" transform="translate(-259.535 -199.723)" fill="#24126a"/>
          <path id="Path_420" data-name="Path 420" d="M400.3,225.068l-18.131-10.495c-1.451-.811-1.28-2.3.384-3.285l5.972-3.413a6.356,6.356,0,0,1,5.674-.256l18.131,10.495c1.45.853,1.28,2.3-.427,3.285l-5.93,3.413a6.357,6.357,0,0,1-5.674.256Z" transform="translate(-237.586 -207.072)" fill="#24126a"/>
          <path id="Path_421" data-name="Path 421" d="M408.844,229.981,390.67,219.529c-1.451-.853-1.237-2.346.427-3.285l5.93-3.456a6.229,6.229,0,0,1,5.674-.213l18.173,10.452c1.451.853,1.28,2.3-.427,3.285l-5.93,3.413a6.228,6.228,0,0,1-5.674.256Z" transform="translate(-209.745 -190.996)" fill="#24126a"/>
          <path id="Path_422" data-name="Path 422" d="M415.322,233.777l-18.131-10.495c-1.45-.853-1.28-2.3.427-3.285l5.93-3.413a6.356,6.356,0,0,1,5.674-.256l18.131,10.495c1.451.853,1.28,2.3-.384,3.285L421,233.522a6.357,6.357,0,0,1-5.674.256Z" transform="translate(-188.494 -178.624)" fill="#24126a"/>
          <path id="Path_423" data-name="Path 423" d="M421.672,237.476l-17.918-10.452c-1.45-.853-1.28-2.3.384-3.285l5.972-3.413a6.229,6.229,0,0,1,5.674-.256l17.832,10.495c1.451.811,1.28,2.3-.427,3.242l-5.93,3.456a6.228,6.228,0,0,1-5.589.214Z" transform="translate(-167.071 -166.453)" fill="#24126a"/>
          <path id="Path_424" data-name="Path 424" d="M428.364,241.264l-18.173-10.58c-1.45-.853-1.237-2.346.427-3.285l5.93-3.456a6.23,6.23,0,0,1,5.674,0L440.394,234.4c1.45.853,1.28,2.3-.427,3.285l-5.93,3.413a6.229,6.229,0,0,1-5.674.171Z" transform="translate(-145.991 -154.2)" fill="#24126a"/>
          <path id="Path_425" data-name="Path 425" d="M464.534,262.124l-18-10.452c-1.45-.853-1.28-2.3.427-3.285l5.93-3.456a6.356,6.356,0,0,1,5.674,0l18.131,10.452c1.451.853,1.28,2.346-.384,3.285l-5.972,3.456a6.228,6.228,0,0,1-5.8,0Z" transform="translate(-27.345 -85.6)" fill="#24126a"/>
          <path id="Path_426" data-name="Path 426" d="M471.175,265.981l-18.131-10.495c-1.45-.811-1.28-2.3.384-3.242l5.973-3.456a6.228,6.228,0,0,1,5.674-.213l18.131,10.452c1.451.853,1.28,2.3-.427,3.285l-5.93,3.413a6.228,6.228,0,0,1-5.674.256Z" transform="translate(-6.085 -73.417)" fill="#24126a"/>
          <path id="Path_427" data-name="Path 427" d="M477.715,269.777l-18.174-10.495c-1.45-.853-1.28-2.3.427-3.285l5.93-3.413a6.357,6.357,0,0,1,5.674-.256l18.173,10.495c1.45.811,1.237,2.3-.427,3.285l-5.93,3.413a6.357,6.357,0,0,1-5.674.256Z" transform="translate(15.147 -61.044)" fill="#24126a"/>
          <path id="Path_428" data-name="Path 428" d="M484.182,273.479l-18.131-10.452c-1.451-.853-1.28-2.3.427-3.285l5.93-3.456a6.356,6.356,0,0,1,5.674-.213l18.131,10.452c1.45.853,1.28,2.346-.384,3.285l-5.972,3.456a6.228,6.228,0,0,1-5.674.214Z" transform="translate(36.41 -48.876)" fill="#24126a"/>
          <path id="Path_429" data-name="Path 429" d="M419.745,249.339l-18.131-10.452c-1.451-.853-1.28-2.3.384-3.285l18-10.367a6.355,6.355,0,0,1,5.674-.256l18.131,10.495c1.451.853,1.28,2.3-.427,3.285l-17.96,10.367A6.229,6.229,0,0,1,419.745,249.339Z" transform="translate(-174.061 -150.372)" fill="#24126a"/>
          <path id="Path_430" data-name="Path 430" d="M426.345,253.171l-18.174-10.495c-1.451-.853-1.28-2.3.427-3.285l17.96-10.367a6.356,6.356,0,0,1,5.674-.256l18.174,10.495c1.45.853,1.237,2.3-.427,3.285l-18,10.324a6.358,6.358,0,0,1-5.631.3Z" transform="translate(-152.632 -137.994)" fill="#24126a"/>
          <path id="Path_431" data-name="Path 431" d="M432.839,256.869l-18.088-10.495c-1.45-.811-1.28-2.3.427-3.285l17.96-10.367a6.229,6.229,0,0,1,5.674,0l18.131,10.452c1.45.853,1.28,2.3-.384,3.285l-18,10.367a6.356,6.356,0,0,1-5.717.042Z" transform="translate(-131.141 -125.523)" fill="#24126a"/>
          <path id="Path_432" data-name="Path 432" d="M439.445,260.745,421.314,250.25c-1.45-.811-1.28-2.3.384-3.285l18-10.367a6.229,6.229,0,0,1,5.674-.213l18.131,10.452c1.45.853,1.28,2.3-.427,3.285l-17.96,10.367a6.228,6.228,0,0,1-5.674.256Z" transform="translate(-109.719 -113.23)" fill="#24126a"/>
          <path id="Path_433" data-name="Path 433" d="M446.045,264.458l-18.174-10.409c-1.45-.811-1.28-2.3.427-3.242l17.96-10.409a6.356,6.356,0,0,1,5.674-.213l18.174,10.452c1.451.853,1.237,2.3-.427,3.285l-17.96,10.367a6.228,6.228,0,0,1-5.674.171Z" transform="translate(-88.29 -100.775)" fill="#24126a"/>
          <path id="Path_434" data-name="Path 434" d="M452.572,268.228l-18.131-10.452c-1.451-.853-1.28-2.346.427-3.285l17.96-10.409a6.356,6.356,0,0,1,5.674,0l18.131,10.452c1.451.853,1.28,2.346-.384,3.285l-18,10.409a6.357,6.357,0,0,1-5.674,0Z" transform="translate(-66.832 -88.376)" fill="#24126a"/>
          <path id="Path_435" data-name="Path 435" d="M459.158,272.08l-18.131-10.452c-1.493-.853-1.28-2.3.384-3.285l18-10.367a6.229,6.229,0,0,1,5.674-.256l18.131,10.494c1.451.811,1.28,2.3-.427,3.242l-17.96,10.623a6.357,6.357,0,0,1-5.674,0Z" transform="translate(-45.39 -76.145)" fill="#24126a"/>
          <path id="Path_436" data-name="Path 436" d="M465.745,275.89l-18.174-10.452c-1.451-.853-1.28-2.3.427-3.285l17.96-10.367a6.229,6.229,0,0,1,5.674-.256l18.174,10.494c1.45.811,1.237,2.3-.427,3.285l-17.96,10.367a6.228,6.228,0,0,1-5.674.213Z" transform="translate(-23.948 -63.702)" fill="#24126a"/>
          <path id="Path_437" data-name="Path 437" d="M472.272,279.505l-18.131-10.452c-1.45-.853-1.28-2.3.427-3.285l17.96-10.153a6.356,6.356,0,0,1,5.674-.256l18.131,10.495c1.45.811,1.28,2.3-.384,3.285l-17.875,10.153a6.229,6.229,0,0,1-5.8.214Z" transform="translate(-2.49 -51.148)" fill="#24126a"/>
          <path id="Path_438" data-name="Path 438" d="M409.376,265.414,355.751,234.57c-1.45-.811-1.28-2.3.427-3.285l17.96-10.367a6.229,6.229,0,0,1,5.674-.213l53.454,30.844c1.45.811,1.28,2.3-.427,3.285L414.879,265.2a6.228,6.228,0,0,1-5.5.214Z" transform="translate(-323.841 -164.443)" fill="#24126a"/>
          <path id="Path_439" data-name="Path 439" d="M489.9,312.012l-53.411-30.844c-1.493-.853-1.28-2.3.384-3.285l17.96-10.367a6.314,6.314,0,0,1,5.717-.256l53.411,30.844c1.451.853,1.28,2.3-.427,3.285l-17.96,10.367a6.229,6.229,0,0,1-5.674.256Z" transform="translate(-60.218 -12.326)" fill="#24126a"/>
          <path id="Path_440" data-name="Path 440" d="M436.648,291.133l-18.131-10.452c-1.493-.853-1.28-2.3.384-3.285l21.33-12.372a6.357,6.357,0,0,1,5.674-.256l18.131,10.494c1.493.853,1.28,2.3-.384,3.285l-21.33,12.372A6.356,6.356,0,0,1,436.648,291.133Z" transform="translate(-118.91 -20.414)" fill="#24126a"/>
          <path id="Path_441" data-name="Path 441" d="M397.25,268.416l-29.009-16.766c-1.45-.811-1.28-2.3.427-3.285L390,236.037a6.229,6.229,0,0,1,5.674-.256l29.009,16.766c1.451.811,1.28,2.3-.427,3.285l-21.33,12.329a6.229,6.229,0,0,1-5.674.256Z" transform="translate(-283.047 -115.143)" fill="#24126a"/>
          <path id="Path_442" data-name="Path 442" d="M438.611,292.3,409.6,275.531c-1.451-.811-1.28-2.3.427-3.285l21.33-12.329a6.229,6.229,0,0,1,5.674-.256l29.009,16.766c1.451.811,1.28,2.3-.427,3.285L444.284,292.04A6.228,6.228,0,0,1,438.611,292.3Z" transform="translate(-147.962 -37.148)" fill="#24126a"/>
          <path id="Path_443" data-name="Path 443" d="M406.622,273.886,377.74,257.121c-1.451-.811-1.237-2.3.427-3.285L399.5,241.507a6.229,6.229,0,0,1,5.674-.256l29.009,16.766c1.451.811,1.28,2.3-.384,3.285l-21.33,12.329A6.228,6.228,0,0,1,406.622,273.886Z" transform="translate(-251.976 -97.277)" fill="#24126a"/>
          <path id="Path_444" data-name="Path 444" d="M404.559,240.85,530.58,313.672c1.578.9,1.578,2.346,0,3.285l-21.8,12.585a6.313,6.313,0,0,1-5.674,0L377,256.72Z" transform="translate(-251.236 -96.748)" fill="#24126a"/>
          <path id="Path_445" data-name="Path 445" d="M451.469,277.788l20.221,11.646c1.194.683,1.024,1.877-.341,2.688l-8.745,5.247a5.375,5.375,0,0,1-4.693,0l-20.179-11.646c-1.194-.683-1.066-1.92.341-2.688l8.745-5.077A4.991,4.991,0,0,1,451.469,277.788Z" transform="translate(-55.533 22.283)" fill="#24126a"/>
          <path id="Path_446" data-name="Path 446" d="M444.852,273.93l20.221,11.689c1.194.683,1.024,1.877-.341,2.688l-8.788,5.034a5.12,5.12,0,0,1-4.65.213l-20.179-11.689c-1.194-.683-1.067-1.877.3-2.688l8.788-5.034A5.119,5.119,0,0,1,444.852,273.93Z" transform="translate(-77.158 9.801)" fill="#24126a"/>
          <path id="Path_447" data-name="Path 447" d="M438.279,270.14,458.5,281.829c1.195.683,1.024,1.877-.341,2.688l-8.745,5.034a5.162,5.162,0,0,1-4.65.213l-20.221-11.689c-1.194-.683-1.067-1.877.341-2.688l8.745-5.034a5.12,5.12,0,0,1,4.65-.213Z" transform="translate(-98.613 -2.578)" fill="#24126a"/>
          <path id="Path_448" data-name="Path 448" d="M448.5,271.971l20.179,11.646c1.194.725,1.067,1.92-.341,2.688l-8.746,4.906a4.991,4.991,0,0,1-4.65,0l-20.221-11.647c-1.194-.683-1.024-1.877.341-2.688l8.745-5.077a5.376,5.376,0,0,1,4.693.171Z" transform="translate(-65.321 2.844)" fill="#24126a"/>
        </g>
        <path id="Path_449" data-name="Path 449" d="M512.243,183.635a8.533,8.533,0,0,1-4.266-1.195,12.372,12.372,0,0,1-5.93-12.5,6.185,6.185,0,0,1,3.541-4.522,7.679,7.679,0,0,1,6.74.683,12.8,12.8,0,0,1,5.93,12.542,6.229,6.229,0,0,1-3.583,4.266,6.1,6.1,0,0,1-2.432.725Zm-4.266-16.766a4.011,4.011,0,0,0-1.749.341,4.266,4.266,0,0,0-2.432,3.157,10.367,10.367,0,0,0,5.034,10.367,5.546,5.546,0,0,0,4.948.64,4.266,4.266,0,0,0,2.432-3.2,10.323,10.323,0,0,0-4.991-10.367,6.526,6.526,0,0,0-3.071-.939Z" transform="translate(1639.277 538.701)" fill="#42e8e0"/>
        <path id="Path_450" data-name="Path 450" d="M517.65,186.8a8.533,8.533,0,0,1-4.266-1.237,12.414,12.414,0,0,1-5.93-12.5,6.315,6.315,0,0,1,3.584-4.522,7.466,7.466,0,0,1,6.7.725,12.372,12.372,0,0,1,5.93,12.5,6.27,6.27,0,0,1-3.541,4.522,6.187,6.187,0,0,1-2.474.512Zm-4.266-16.808a4.521,4.521,0,0,0-1.706.341,4.266,4.266,0,0,0-2.432,3.2,10.239,10.239,0,0,0,4.991,10.367,5.632,5.632,0,0,0,4.991.6,4.479,4.479,0,0,0,2.432-3.157,10.282,10.282,0,0,0-5.034-10.367,6.485,6.485,0,0,0-3.072-.981Z" transform="translate(1656.949 548.893)" fill="#42e8e0"/>
        <path id="Path_451" data-name="Path 451" d="M527.391,184.033a5.5,5.5,0,0,1-8.831,3.157,11.263,11.263,0,0,1-5.461-11.433,5.546,5.546,0,0,1,8.831-3.2,11.348,11.348,0,0,1,5.461,11.476Z" transform="translate(1675.408 559.76)" fill="#42e8e0"/>
        <path id="Path_452" data-name="Path 452" d="M422.012,124.431l-12.372-7.124.981-5.717,12.329,7.124Z" transform="translate(1337.924 364.464)" fill="#42e8e0"/>
        <path id="Path_453" data-name="Path 453" d="M426.222,126.861l-12.372-7.124.939-5.717,12.372,7.124Z" transform="translate(1351.674 372.4)" fill="#42e8e0"/>
        <path id="Path_454" data-name="Path 454" d="M429.11,128.563l-27.09-15.657L403,107.19l27.09,15.657Z" transform="translate(1313.036 350.093)" fill="#42e8e0"/>
        <path id="Path_455" data-name="Path 455" d="M425.011,150.263,404.32,138.318l.811-4.778,20.691,11.945Z" transform="translate(1320.548 436.154)" fill="#42e8e0"/>
        <path id="Path_456" data-name="Path 456" d="M421.247,148.081l-10.367-5.973.811-4.778,10.324,5.973Z" transform="translate(1341.974 448.533)" fill="#42e8e0"/>
        <path id="Path_457" data-name="Path 457" d="M416.888,148.455l-8.788-5.077.768-4.778,8.831,5.077Z" transform="translate(1332.894 452.681)" fill="#42e8e0"/>
        <path id="Path_458" data-name="Path 458" d="M421.524,151.141,411.2,145.168l.768-4.778,10.367,5.973Z" transform="translate(1343.019 458.527)" fill="#42e8e0"/>
        <path id="Path_459" data-name="Path 459" d="M448.306,169.472,407.65,146.008l.811-4.778,40.656,23.464Z" transform="translate(1331.424 461.271)" fill="#42e8e0"/>
        <path id="Path_460" data-name="Path 460" d="M440.013,191.462,399.4,168l.811-4.778,40.613,23.463Z" transform="translate(1304.479 533.092)" fill="#42e8e0"/>
        <path id="Path_461" data-name="Path 461" d="M420.484,180.181l-10.324-5.972.811-4.778,10.324,5.973Z" transform="translate(1339.622 553.375)" fill="#42e8e0"/>
        <path id="Path_462" data-name="Path 462" d="M416.041,153.747l-8.831-5.119.811-4.778,8.831,5.119Z" transform="translate(1329.987 469.828)" fill="#42e8e0"/>
        <path id="Path_463" data-name="Path 463" d="M420.677,156.358l-10.367-5.93.811-4.778,10.367,5.93Z" transform="translate(1340.112 475.707)" fill="#42e8e0"/>
        <path id="Path_464" data-name="Path 464" d="M429.124,164.184,406.77,151.258l.811-4.778,22.354,12.884Z" transform="translate(1328.55 478.418)" fill="#42e8e0"/>
        <path id="Path_465" data-name="Path 465" d="M423.414,160.881l-10.324-5.973.811-4.778,10.324,5.973Z" transform="translate(1349.192 490.339)" fill="#42e8e0"/>
        <path id="Path_466" data-name="Path 466" d="M426.977,162.911l-10.367-5.973.811-4.778,10.324,5.973Z" transform="translate(1360.688 496.969)" fill="#42e8e0"/>
        <path id="Path_467" data-name="Path 467" d="M439.679,170.241,420.14,158.978l.768-4.778,19.581,11.262Z" transform="translate(1372.218 503.632)" fill="#42e8e0"/>
        <path id="Path_468" data-name="Path 468" d="M428.994,169.861l-10.324-5.973.811-4.778,10.324,5.973Z" transform="translate(1367.417 519.669)" fill="#42e8e0"/>
        <path id="Path_469" data-name="Path 469" d="M441.771,177.191,422.19,165.928l.81-4.778,19.539,11.263Z" transform="translate(1378.913 526.331)" fill="#42e8e0"/>
        <path id="Path_470" data-name="Path 470" d="M416.257,162.448l-10.367-5.93.81-4.778,10.324,5.93Z" transform="translate(1325.676 495.597)" fill="#42e8e0"/>
        <path id="Path_471" data-name="Path 471" d="M419.744,164.521l-10.324-5.972.768-4.778,10.367,5.972Z" transform="translate(1337.205 502.228)" fill="#42e8e0"/>
        <path id="Path_472" data-name="Path 472" d="M432.479,171.883,412.94,160.578l.811-4.778,19.539,11.305Z" transform="translate(1348.702 508.858)" fill="#42e8e0"/>
        <path id="Path_473" data-name="Path 473" d="M432.874,169.221l-10.324-5.973.811-4.778,10.324,5.973Z" transform="translate(1380.089 517.578)" fill="#42e8e0"/>
        <path id="Path_474" data-name="Path 474" d="M436.436,171.293l-10.367-5.973.81-4.821,10.324,5.973Z" transform="translate(1391.586 524.208)" fill="#42e8e0"/>
        <path id="Path_475" data-name="Path 475" d="M449.139,178.623,429.6,167.318l.768-4.778,19.581,11.305Z" transform="translate(1403.115 530.871)" fill="#42e8e0"/>
        <path id="Path_476" data-name="Path 476" d="M424.317,182.371,413.95,176.4l.811-4.778,10.324,5.973Z" transform="translate(1352 560.527)" fill="#42e8e0"/>
        <path id="Path_477" data-name="Path 477" d="M437.019,189.7,417.48,178.438l.768-4.778,19.581,11.263Z" transform="translate(1363.53 567.19)" fill="#42e8e0"/>
        <path id="Path_478" data-name="Path 478" d="M415.377,167.741l-10.367-5.973.811-4.778,10.324,5.973Z" transform="translate(1322.802 512.744)" fill="#42e8e0"/>
        <path id="Path_479" data-name="Path 479" d="M428.079,175.1,408.54,163.8l.768-4.778,19.581,11.305Z" transform="translate(1334.331 519.375)" fill="#42e8e0"/>
        <path id="Path_480" data-name="Path 480" d="M426.956,186.781l-10.367-5.973.811-4.778L427.725,182Z" transform="translate(1360.623 574.931)" fill="#42e8e0"/>
        <path id="Path_481" data-name="Path 481" d="M439.659,194.143,420.12,182.838l.768-4.778,19.581,11.305Z" transform="translate(1372.152 581.561)" fill="#42e8e0"/>
        <path id="Path_482" data-name="Path 482" d="M432.324,160.261,422,154.288l.811-4.778,10.324,5.973Z" transform="translate(1378.292 488.314)" fill="#42e8e0"/>
        <path id="Path_483" data-name="Path 483" d="M428.7,158.108l-10.367-5.973.811-4.735,10.367,5.93Z" transform="translate(1366.306 481.423)" fill="#42e8e0"/>
        <path id="Path_484" data-name="Path 484" d="M445.1,167.623,425.52,156.318l.811-4.778,19.581,11.305Z" transform="translate(1389.789 494.944)" fill="#42e8e0"/>
        <path id="Path_485" data-name="Path 485" d="M415.673,159.263l-9.343-5.375.811-4.778,9.343,5.375Z" transform="translate(1327.113 487.008)" fill="#42e8e0"/>
        <path id="Path_486" data-name="Path 486" d="M432.343,168.925l-22.653-13.1.811-4.778,22.653,13.1Z" transform="translate(1338.087 493.344)" fill="#42e8e0"/>
        <path id="Path_487" data-name="Path 487" d="M438.865,172.665l-22.7-13.1.811-4.778,22.653,13.1Z" transform="translate(1359.251 505.559)" fill="#42e8e0"/>
        <path id="Path_488" data-name="Path 488" d="M440.633,165.066l-9.343-5.418.811-4.778,9.3,5.418Z" transform="translate(1408.635 505.82)" fill="#42e8e0"/>
        <path id="Path_489" data-name="Path 489" d="M457.335,174.685l-22.7-13.1.81-4.778,22.7,13.1Z" transform="translate(1419.576 512.156)" fill="#42e8e0"/>
        <path id="Path_490" data-name="Path 490" d="M463.783,178.425l-22.653-13.1.768-4.778,22.7,13.1Z" transform="translate(1440.773 524.372)" fill="#42e8e0"/>
        <path id="Path_491" data-name="Path 491" d="M428.153,172.265l-22.653-13.1.811-4.778,22.653,13.1Z" transform="translate(1324.402 504.253)" fill="#42e8e0"/>
        <path id="Path_492" data-name="Path 492" d="M418.976,166.961l-7-4.053.811-4.778,6.954,4.01Z" transform="translate(1345.566 516.468)" fill="#42e8e0"/>
        <path id="Path_493" data-name="Path 493" d="M421.744,168.581l-6.954-4.053.811-4.778,6.954,4.053Z" transform="translate(1354.744 521.759)" fill="#42e8e0"/>
        <path id="Path_494" data-name="Path 494" d="M434.707,176.013,417.6,166.158l.811-4.778,17.107,9.855Z" transform="translate(1363.922 527.083)" fill="#42e8e0"/>
        <path id="Path_495" data-name="Path 495" d="M432.754,166.258l-6.954-4.01.811-4.778,6.954,4.01Z" transform="translate(1390.704 514.312)" fill="#42e8e0"/>
        <path id="Path_496" data-name="Path 496" d="M445.717,173.765l-17.107-9.9.768-4.778,17.15,9.9Z" transform="translate(1399.881 519.603)" fill="#42e8e0"/>
        <path id="Path_497" data-name="Path 497" d="M446.807,174.4,429.7,164.5l.768-4.778,17.149,9.855Z" transform="translate(1403.442 521.661)" fill="#42e8e0"/>
        <path id="Path_498" data-name="Path 498" d="M429.454,191.092,407.1,178.208l.811-4.778,22.312,12.884Z" transform="translate(1329.628 566.439)" fill="#42e8e0"/>
        <path id="Path_499" data-name="Path 499" d="M423.744,187.821l-10.324-5.973.811-4.778,10.324,5.973Z" transform="translate(1350.27 578.328)" fill="#42e8e0"/>
        <path id="Path_500" data-name="Path 500" d="M427.264,189.861l-10.324-5.973.81-4.778,10.324,5.972Z" transform="translate(1361.766 584.99)" fill="#42e8e0"/>
        <path id="Path_501" data-name="Path 501" d="M440.041,197.223,420.46,185.918l.811-4.778,19.581,11.305Z" transform="translate(1373.263 591.621)" fill="#42e8e0"/>
        <path id="Path_502" data-name="Path 502" d="M436.584,195.241l-10.324-5.973.811-4.778,10.324,5.973Z" transform="translate(1392.206 602.562)" fill="#42e8e0"/>
        <path id="Path_503" data-name="Path 503" d="M449.361,202.6,429.78,191.3l.81-4.778,19.581,11.305Z" transform="translate(1403.703 609.192)" fill="#42e8e0"/>
        <path id="Path_504" data-name="Path 504" d="M424.834,194.221l-10.324-5.973.768-4.778,10.367,5.973Z" transform="translate(1353.829 599.231)" fill="#42e8e0"/>
        <path id="Path_505" data-name="Path 505" d="M437.611,201.583,418.03,190.278l.811-4.778,19.539,11.305Z" transform="translate(1365.326 605.861)" fill="#42e8e0"/>
        <path id="Path_506" data-name="Path 506" d="M412.174,186.911l-10.324-5.973.811-4.778,10.324,5.973Z" transform="translate(1312.481 575.356)" fill="#42e8e0"/>
        <path id="Path_507" data-name="Path 507" d="M415.737,188.941l-10.367-5.973.811-4.778,10.324,5.973Z" transform="translate(1323.977 581.986)" fill="#42e8e0"/>
        <path id="Path_508" data-name="Path 508" d="M428.471,196.271,408.89,185.008l.81-4.778,19.582,11.262Z" transform="translate(1335.474 588.648)" fill="#42e8e0"/>
        <path id="Path_509" data-name="Path 509" d="M416,186.246l-9.343-5.375.811-4.821,9.3,5.418Z" transform="translate(1328.191 574.996)" fill="#42e8e0"/>
        <path id="Path_510" data-name="Path 510" d="M432.673,195.865l-22.653-13.1.768-4.778,22.7,13.1Z" transform="translate(1339.165 581.332)" fill="#42e8e0"/>
        <path id="Path_511" data-name="Path 511" d="M439.153,199.572l-22.653-13.1.811-4.735,22.653,13.054Z" transform="translate(1360.329 593.58)" fill="#42e8e0"/>
        <path id="Path_512" data-name="Path 512" d="M419.823,194.215l-22.653-13.1.81-4.778,22.653,13.1Z" transform="translate(1297.195 575.943)" fill="#42e8e0"/>
        <path id="Path_513" data-name="Path 513" d="M410.646,188.868l-7-4.01.811-4.778,6.954,4.01Z" transform="translate(1318.36 588.159)" fill="#42e8e0"/>
        <path id="Path_514" data-name="Path 514" d="M413.414,190.488l-6.954-4.01.811-4.778,6.954,4.01Z" transform="translate(1327.537 593.45)" fill="#42e8e0"/>
        <path id="Path_515" data-name="Path 515" d="M426.377,198l-17.107-9.9.811-4.778,17.107,9.9Z" transform="translate(1336.715 598.741)" fill="#42e8e0"/>
        <path id="Path_516" data-name="Path 516" d="M427.467,198.625l-17.107-9.9.811-4.778,17.107,9.9Z" transform="translate(1340.275 600.798)" fill="#42e8e0"/>
        <path id="Path_517" data-name="Path 517" d="M410.2,177.108l-6.954-4.01.768-4.778,6.954,4.01Z" transform="translate(1317.053 549.749)" fill="#42e8e0"/>
        <path id="Path_518" data-name="Path 518" d="M423.2,184.615l-17.15-9.9.811-4.778,17.15,9.9Z" transform="translate(1326.198 555.04)" fill="#42e8e0"/>
        <path id="Path_519" data-name="Path 519" d="M428.467,187.675l-17.107-9.9.768-4.778,17.15,9.9Z" transform="translate(1343.541 565.035)" fill="#42e8e0"/>
        <path id="Path_520" data-name="Path 520" d="M443.747,202.231l-10.367-5.973.81-4.778,10.324,5.973Z" transform="translate(1415.461 625.392)" fill="#42e8e0"/>
        <path id="Path_521" data-name="Path 521" d="M456.449,209.561,436.91,198.3l.768-4.778,19.581,11.263Z" transform="translate(1426.99 632.055)" fill="#42e8e0"/>
        <path id="Path_522" data-name="Path 522" d="M439.99,200.075l-17.15-9.9.811-4.778,17.15,9.9Z" transform="translate(1381.036 605.534)" fill="#42e8e0"/>
        <path id="Path_523" data-name="Path 523" d="M445.257,203.135l-17.107-9.9.768-4.778,17.15,9.9Z" transform="translate(1398.379 615.528)" fill="#42e8e0"/>
        <path id="Path_524" data-name="Path 524" d="M407.364,166l-6.954-4.01.768-4.778,7,4.01Z" transform="translate(1307.778 513.463)" fill="#42e8e0"/>
        <path id="Path_525" data-name="Path 525" d="M420.36,173.505l-17.15-9.9.811-4.778,17.15,9.9Z" transform="translate(1316.922 518.754)" fill="#42e8e0"/>
        <path id="Path_526" data-name="Path 526" d="M425.627,176.565l-17.107-9.9.768-4.778,17.15,9.9Z" transform="translate(1334.266 528.748)" fill="#42e8e0"/>
        <path id="Path_527" data-name="Path 527" d="M608.708,329.3a9.342,9.342,0,0,1-4.778-1.408l-138.477-79.9a19.069,19.069,0,0,1-8.148-18.43l8.873-52.814a9.77,9.77,0,0,1,5.077-7.594,8.532,8.532,0,0,1,7.977.683l138.477,79.9a19.07,19.07,0,0,1,8.148,18.43l-8.874,52.814a9.769,9.769,0,0,1-5.077,7.594,7.463,7.463,0,0,1-3.2.725ZM474.454,170.391a5.588,5.588,0,0,0-2.389.512,7.85,7.85,0,0,0-3.968,6.186L459.224,229.9a17.065,17.065,0,0,0,7.21,16.382l138.435,79.947a6.741,6.741,0,0,0,6.229.6,7.849,7.849,0,0,0,3.967-6.186l8.873-52.814a17.064,17.064,0,0,0-7.21-16.382L478.293,171.5a8.021,8.021,0,0,0-3.84-1.109Z" transform="translate(1492.984 550.238)" fill="#42e8e0"/>
        <path id="Path_528" data-name="Path 528" d="M605.138,350.591a9.344,9.344,0,0,1-4.778-1.408l-138.477-79.9a19.069,19.069,0,0,1-8.148-18.43l8.874-52.814a9.769,9.769,0,0,1,5.077-7.594,8.532,8.532,0,0,1,8.02.683l138.435,79.9a19.069,19.069,0,0,1,8.148,18.43l-8.959,52.814a9.769,9.769,0,0,1-5.077,7.594,7.464,7.464,0,0,1-3.114.725Zm-3.8-3.072a6.655,6.655,0,0,0,6.186.6,8.02,8.02,0,0,0,4.01-6.186l8.831-52.985a17.065,17.065,0,0,0-7.039-16.211L474.894,192.788a6.741,6.741,0,0,0-6.229-.6,7.849,7.849,0,0,0-3.967,6.143l-9.215,52.857a17.064,17.064,0,0,0,7.21,16.382Z" transform="translate(1481.325 619.732)" fill="#42e8e0"/>
        <path id="Path_529" data-name="Path 529" d="M462,222.184c2.432,1.408,4.607.9,5.418-1.322l16.169-44.111c1.834-5.034,9.385-.469,10.964,6.655l9.94,44.367a13.139,13.139,0,0,0,5.5,7.978l2.389,1.365c2.3,1.323,4.266.939,5.29-.981l3.285-6.954c2.048-4.266,8.873-.256,10.708,6.4h0a12.8,12.8,0,0,0,5.376,7.38l2.09,1.194c2.517,1.45,4.735.853,5.5-1.493l2.986-9.172c1.706-5.2,9.258-.9,10.964,6.271l9.983,41.083a12.8,12.8,0,0,0,5.546,7.85Z" transform="translate(1508.936 570.328)" opacity="0.5" fill="url(#linear-gradient-7)" style="mix-blend-mode: lighten;isolation: isolate"/>
        <path id="Path_530" data-name="Path 530" d="M569.829,311.4a13.907,13.907,0,0,1-6.015-8.532l-9.94-41.083c-1.067-4.266-4.607-7.764-7.082-7.85a2.005,2.005,0,0,0-2.048,1.621l-2.986,9.215a4.266,4.266,0,0,1-2.389,2.688,5.375,5.375,0,0,1-4.522-.683l-2.091-1.194a13.736,13.736,0,0,1-5.844-7.722,10.025,10.025,0,0,0-6.826-7.466,1.92,1.92,0,0,0-2.048,1.237l-3.285,6.954a3.755,3.755,0,0,1-2.346,2.133,5.247,5.247,0,0,1-4.266-.725l-2.389-1.365a14.079,14.079,0,0,1-5.972-8.532l-9.94-44.41a10.2,10.2,0,0,0-7.039-8.02,2.005,2.005,0,0,0-2.091,1.493l-16.126,44.154a3.925,3.925,0,0,1-2.389,2.474,5.077,5.077,0,0,1-4.266-.683l.939-1.664a3.711,3.711,0,0,0,2.858.555,2.133,2.133,0,0,0,1.195-1.365l15.955-44.5a3.839,3.839,0,0,1,4.01-2.773,11.817,11.817,0,0,1,8.788,9.513l9.983,44.453a11.944,11.944,0,0,0,5.034,7.338l2.389,1.365a3.627,3.627,0,0,0,2.73.555,2.046,2.046,0,0,0,1.194-1.109l3.285-6.954a3.84,3.84,0,0,1,3.968-2.346,11.732,11.732,0,0,1,8.532,8.874,12.031,12.031,0,0,0,4.949,6.825l2.09,1.195a3.285,3.285,0,0,0,2.816.512,2.047,2.047,0,0,0,1.237-1.45l3.029-9.215a3.84,3.84,0,0,1,3.754-2.944h0a11.732,11.732,0,0,1,8.916,9.3l9.94,41.125a11.9,11.9,0,0,0,5.119,7.167Z" transform="translate(1495.644 638.022)" fill="#42e8e0"/>
        <path id="Path_531" data-name="Path 531" d="M565.565,230.076a12.116,12.116,0,0,1-6.058-1.707l-108.231-62.5a19.24,19.24,0,0,1-8.532-20.733,11.6,11.6,0,0,1,6.612-7.978,11.006,11.006,0,0,1,9.9.981l108.231,62.5a19.24,19.24,0,0,1,8.532,20.733,11.6,11.6,0,0,1-6.783,7.978A9.9,9.9,0,0,1,565.565,230.076Zm-112.2-91.721a8.532,8.532,0,0,0-3.114.6,9.727,9.727,0,0,0-5.461,6.7,17.363,17.363,0,0,0,7.423,18.558l108.487,62.5a9.257,9.257,0,0,0,8.191.853,9.812,9.812,0,0,0,5.46-6.7A17.278,17.278,0,0,0,566.93,202.3l-108.615-62.5a10.452,10.452,0,0,0-4.949-1.45Z" transform="translate(1444.363 445.546)" fill="#42e8e0"/>
      </g>
    </g>
    <g id="Layer_x0020_1" transform="translate(-4376.282 -1235.635)">
      <g id="_2383669997872" transform="translate(4485.282 1644.629)">
        <path id="Path_532" data-name="Path 532" d="M4708.051,2056.608h119.484L4641.908,1858.9h-.049l.025-.028-.025-.028h.049l185.525-197.6H4708.051L4520.9,1858.927Zm439.145-.521,6.361-2.585-173.531-201.036,176.9-198.72-2.973.091.32-.435-299.352-8.773-6.363,8.684,298.838,4.377-178.777,194.4-6.137,2.493Zm-501.385-54.255h3.828l-144.967-142.976h-.025l160.67-162.987h-5.295l-174.684,162.988h-.055l.027.025-.027.027h.059Zm197.955,54.776H5136.2l-187.148-197.681.025-.031H4775.65l33.088-34.159h.129l81.961-84.183,44.939-.413-82.359,84.6h128.01L5136.2,1661.246H4843.664l-185.549,197.627,77.01,82.021h167.949l32.076,34.16H4767.2Z" transform="translate(-4485.283 -1644.629)" fill="#fff" fill-rule="evenodd"/>
      </g>
    </g>
    <text id="KWIQSOFT" transform="translate(97 925)" fill="#fff" font-size="124" font-family="MandatoryPlaything, Mandatory Plaything"><tspan x="0" y="0">KWIQSOFT</tspan></text>
  </g>
</svg>
